SplineFontDB: 3.0
FontName: FontName
FullName: FontName 
FamilyName: FontName
Weight: Medium
Copyright: generated by bdf-starter
Version: 001.000
ItalicAngle: 0
UnderlinePosition: -100
UnderlineWidth: 50
Ascent: 800
Descent: 200
sfntRevision: 0x00010000
LayerCount: 2
Layer: 0 1 "Back"  1
Layer: 1 1 "Fore"  0
XUID: [1021 377 1322763916 11946875]
FSType: 0
OS2Version: 4
OS2_WeightWidthSlopeOnly: 0
OS2_UseTypoMetrics: 1
CreationTime: 1444380267
ModificationTime: 1444534449
PfmFamily: 17
TTFWeight: 500
TTFWidth: 5
LineGap: 90
VLineGap: 0
Panose: 2 0 6 9 0 0 0 0 0 0
OS2TypoAscent: 800
OS2TypoAOffset: 0
OS2TypoDescent: -200
OS2TypoDOffset: 0
OS2TypoLinegap: 90
OS2WinAscent: 800
OS2WinAOffset: 0
OS2WinDescent: 200
OS2WinDOffset: 0
HheadAscent: 800
HheadAOffset: 0
HheadDescent: -200
HheadDOffset: 0
OS2SubXSize: 650
OS2SubYSize: 700
OS2SubXOff: 0
OS2SubYOff: 140
OS2SupXSize: 650
OS2SupYSize: 700
OS2SupXOff: 0
OS2SupYOff: 480
OS2StrikeYSize: 49
OS2StrikeYPos: 258
OS2Vendor: 'PfEd'
OS2CodePages: 00000001.00000000
OS2UnicodeRanges: 00000001.00000000.00000000.00000000
DEI: 91125
ShortTable: cvt  2
  33
  633
EndShort
ShortTable: maxp 16
  1
  0
  44
  144
  7
  0
  0
  2
  0
  1
  1
  0
  64
  46
  0
  0
EndShort
LangName: 1033 "" "" "" "FontForge 2.0 : FontName  : 10-10-2015" 
GaspTable: 1 65535 2 0
Encoding: UnicodeBmp
UnicodeInterp: none
NameList: Adobe Glyph List
DisplaySize: -24
AntiAlias: 1
FitToEm: 1
WinInfo: 0 16 8
BeginChars: 65540 45

StartChar: .notdef
Encoding: 65536 -1 0
Width: 875
Flags: W
LayerCount: 2
Fore
SplineSet
33 0 m 1,0,-1
 33 666 l 1,1,-1
 298 666 l 1,2,-1
 298 0 l 1,3,-1
 33 0 l 1,0,-1
66 33 m 1,4,-1
 265 33 l 1,5,-1
 265 633 l 1,6,-1
 66 633 l 1,7,-1
 66 33 l 1,4,-1
EndSplineSet
EndChar

StartChar: char56
Encoding: 45 45 5
Width: 875
Flags: W
LayerCount: 2
Fore
SplineSet
250 238 m 1,0,-1
 250 300 l 1,1,-1
 188 300 l 1,2,-1
 188 362 l 1,3,-1
 250 362 l 1,4,-1
 250 425 l 1,5,-1
 312 425 l 1,6,-1
 375 425 l 1,7,-1
 438 425 l 1,8,-1
 500 425 l 1,9,-1
 562 425 l 1,10,-1
 562 362 l 1,11,-1
 625 362 l 1,12,-1
 625 300 l 1,13,-1
 562 300 l 1,14,-1
 562 238 l 1,15,-1
 500 238 l 1,16,-1
 438 238 l 1,17,-1
 375 238 l 1,18,-1
 312 238 l 1,19,-1
 250 238 l 1,0,-1
EndSplineSet
EndChar

StartChar: char56
Encoding: 46 46 6
Width: 875
Flags: W
LayerCount: 2
Fore
SplineSet
125 -200 m 1,0,-1
 125 -138 l 1,1,-1
 188 -138 l 1,2,-1
 188 -75 l 1,3,-1
 250 -75 l 1,4,-1
 250 -12 l 1,5,-1
 312 -12 l 1,6,-1
 375 -12 l 1,7,-1
 438 -12 l 1,8,-1
 500 -12 l 1,9,-1
 562 -12 l 1,10,-1
 562 -75 l 1,11,-1
 625 -75 l 1,12,-1
 625 -138 l 1,13,-1
 688 -138 l 1,14,-1
 688 -200 l 1,15,-1
 625 -200 l 1,16,-1
 562 -200 l 1,17,-1
 500 -200 l 1,18,-1
 438 -200 l 1,19,-1
 375 -200 l 1,20,-1
 312 -200 l 1,21,-1
 250 -200 l 1,22,-1
 188 -200 l 1,23,-1
 125 -200 l 1,0,-1
EndSplineSet
EndChar

StartChar: char48
Encoding: 48 48 7
Width: 875
Flags: W
LayerCount: 2
Fore
SplineSet
125 -200 m 1,0,-1
 125 -138 l 1,1,-1
 188 -138 l 1,2,-1
 188 -75 l 1,3,-1
 250 -75 l 1,4,-1
 250 -12 l 1,5,-1
 312 -12 l 1,6,-1
 375 -12 l 1,7,-1
 438 -12 l 1,8,-1
 500 -12 l 1,9,-1
 562 -12 l 1,10,-1
 562 -75 l 1,11,-1
 625 -75 l 1,12,-1
 625 -138 l 1,13,-1
 688 -138 l 1,14,-1
 688 -200 l 1,15,-1
 625 -200 l 1,16,-1
 562 -200 l 1,17,-1
 500 -200 l 1,18,-1
 438 -200 l 1,19,-1
 375 -200 l 1,20,-1
 312 -200 l 1,21,-1
 250 -200 l 1,22,-1
 188 -200 l 1,23,-1
 125 -200 l 1,0,-1
62 -138 m 1,24,-1
 62 -75 l 1,25,-1
 62 -12 l 1,26,-1
 62 50 l 1,27,-1
 62 112 l 1,28,-1
 62 175 l 1,29,-1
 62 238 l 1,30,-1
 62 300 l 1,31,-1
 125 300 l 1,32,-1
 188 300 l 1,33,-1
 188 238 l 1,34,-1
 250 238 l 1,35,-1
 250 175 l 1,36,-1
 250 112 l 1,37,-1
 250 50 l 1,38,-1
 250 -12 l 1,39,-1
 188 -12 l 1,40,-1
 188 -75 l 1,41,-1
 125 -75 l 1,42,-1
 125 -138 l 1,43,-1
 62 -138 l 1,24,-1
688 -138 m 1,44,-1
 688 -75 l 1,45,-1
 625 -75 l 1,46,-1
 625 -12 l 1,47,-1
 562 -12 l 1,48,-1
 562 50 l 1,49,-1
 562 112 l 1,50,-1
 562 175 l 1,51,-1
 562 238 l 1,52,-1
 625 238 l 1,53,-1
 625 300 l 1,54,-1
 688 300 l 1,55,-1
 750 300 l 1,56,-1
 750 238 l 1,57,-1
 750 175 l 1,58,-1
 750 112 l 1,59,-1
 750 50 l 1,60,-1
 750 -12 l 1,61,-1
 750 -75 l 1,62,-1
 750 -138 l 1,63,-1
 688 -138 l 1,44,-1
62 362 m 1,64,-1
 62 425 l 1,65,-1
 62 488 l 1,66,-1
 62 550 l 1,67,-1
 62 612 l 1,68,-1
 62 675 l 1,69,-1
 62 738 l 1,70,-1
 125 738 l 1,71,-1
 125 675 l 1,72,-1
 188 675 l 1,73,-1
 188 612 l 1,74,-1
 250 612 l 1,75,-1
 250 550 l 1,76,-1
 250 488 l 1,77,-1
 250 425 l 1,78,-1
 188 425 l 1,79,-1
 188 362 l 1,80,-1
 125 362 l 1,81,-1
 62 362 l 1,64,-1
625 362 m 1,82,-1
 625 425 l 1,83,-1
 562 425 l 1,84,-1
 562 488 l 1,85,-1
 562 550 l 1,86,-1
 562 612 l 1,87,-1
 625 612 l 1,88,-1
 625 675 l 1,89,-1
 688 675 l 1,90,-1
 688 738 l 1,91,-1
 750 738 l 1,92,-1
 750 675 l 1,93,-1
 750 612 l 1,94,-1
 750 550 l 1,95,-1
 750 488 l 1,96,-1
 750 425 l 1,97,-1
 750 362 l 1,98,-1
 688 362 l 1,99,-1
 625 362 l 1,82,-1
250 612 m 1,100,-1
 250 675 l 1,101,-1
 188 675 l 1,102,-1
 188 738 l 1,103,-1
 125 738 l 1,104,-1
 125 800 l 1,105,-1
 188 800 l 1,106,-1
 250 800 l 1,107,-1
 312 800 l 1,108,-1
 375 800 l 1,109,-1
 438 800 l 1,110,-1
 500 800 l 1,111,-1
 562 800 l 1,112,-1
 625 800 l 1,113,-1
 688 800 l 1,114,-1
 688 738 l 1,115,-1
 625 738 l 1,116,-1
 625 675 l 1,117,-1
 562 675 l 1,118,-1
 562 612 l 1,119,-1
 500 612 l 1,120,-1
 438 612 l 1,121,-1
 375 612 l 1,122,-1
 312 612 l 1,123,-1
 250 612 l 1,100,-1
EndSplineSet
EndChar

StartChar: char49
Encoding: 49 49 8
Width: 875
Flags: W
LayerCount: 2
Fore
SplineSet
688 -138 m 1,0,-1
 688 -75 l 1,1,-1
 625 -75 l 1,2,-1
 625 -12 l 1,3,-1
 562 -12 l 1,4,-1
 562 50 l 1,5,-1
 562 112 l 1,6,-1
 562 175 l 1,7,-1
 562 238 l 1,8,-1
 625 238 l 1,9,-1
 625 300 l 1,10,-1
 688 300 l 1,11,-1
 750 300 l 1,12,-1
 750 238 l 1,13,-1
 750 175 l 1,14,-1
 750 112 l 1,15,-1
 750 50 l 1,16,-1
 750 -12 l 1,17,-1
 750 -75 l 1,18,-1
 750 -138 l 1,19,-1
 688 -138 l 1,0,-1
625 362 m 1,20,-1
 625 425 l 1,21,-1
 562 425 l 1,22,-1
 562 488 l 1,23,-1
 562 550 l 1,24,-1
 562 612 l 1,25,-1
 625 612 l 1,26,-1
 625 675 l 1,27,-1
 688 675 l 1,28,-1
 688 738 l 1,29,-1
 750 738 l 1,30,-1
 750 675 l 1,31,-1
 750 612 l 1,32,-1
 750 550 l 1,33,-1
 750 488 l 1,34,-1
 750 425 l 1,35,-1
 750 362 l 1,36,-1
 688 362 l 1,37,-1
 625 362 l 1,20,-1
EndSplineSet
EndChar

StartChar: char50
Encoding: 50 50 9
Width: 875
Flags: W
LayerCount: 2
Fore
SplineSet
125 -200 m 1,0,-1
 125 -138 l 1,1,-1
 188 -138 l 1,2,-1
 188 -75 l 1,3,-1
 250 -75 l 1,4,-1
 250 -12 l 1,5,-1
 312 -12 l 1,6,-1
 375 -12 l 1,7,-1
 438 -12 l 1,8,-1
 500 -12 l 1,9,-1
 562 -12 l 1,10,-1
 562 -75 l 1,11,-1
 625 -75 l 1,12,-1
 625 -138 l 1,13,-1
 688 -138 l 1,14,-1
 688 -200 l 1,15,-1
 625 -200 l 1,16,-1
 562 -200 l 1,17,-1
 500 -200 l 1,18,-1
 438 -200 l 1,19,-1
 375 -200 l 1,20,-1
 312 -200 l 1,21,-1
 250 -200 l 1,22,-1
 188 -200 l 1,23,-1
 125 -200 l 1,0,-1
62 -138 m 1,24,-1
 62 -75 l 1,25,-1
 62 -12 l 1,26,-1
 62 50 l 1,27,-1
 62 112 l 1,28,-1
 62 175 l 1,29,-1
 62 238 l 1,30,-1
 62 300 l 1,31,-1
 125 300 l 1,32,-1
 188 300 l 1,33,-1
 188 238 l 1,34,-1
 250 238 l 1,35,-1
 250 175 l 1,36,-1
 250 112 l 1,37,-1
 250 50 l 1,38,-1
 250 -12 l 1,39,-1
 188 -12 l 1,40,-1
 188 -75 l 1,41,-1
 125 -75 l 1,42,-1
 125 -138 l 1,43,-1
 62 -138 l 1,24,-1
250 238 m 1,44,-1
 250 300 l 1,45,-1
 188 300 l 1,46,-1
 188 362 l 1,47,-1
 250 362 l 1,48,-1
 250 425 l 1,49,-1
 312 425 l 1,50,-1
 375 425 l 1,51,-1
 438 425 l 1,52,-1
 500 425 l 1,53,-1
 562 425 l 1,54,-1
 562 362 l 1,55,-1
 625 362 l 1,56,-1
 625 300 l 1,57,-1
 562 300 l 1,58,-1
 562 238 l 1,59,-1
 500 238 l 1,60,-1
 438 238 l 1,61,-1
 375 238 l 1,62,-1
 312 238 l 1,63,-1
 250 238 l 1,44,-1
625 362 m 1,64,-1
 625 425 l 1,65,-1
 562 425 l 1,66,-1
 562 488 l 1,67,-1
 562 550 l 1,68,-1
 562 612 l 1,69,-1
 625 612 l 1,70,-1
 625 675 l 1,71,-1
 688 675 l 1,72,-1
 688 738 l 1,73,-1
 750 738 l 1,74,-1
 750 675 l 1,75,-1
 750 612 l 1,76,-1
 750 550 l 1,77,-1
 750 488 l 1,78,-1
 750 425 l 1,79,-1
 750 362 l 1,80,-1
 688 362 l 1,81,-1
 625 362 l 1,64,-1
250 612 m 1,82,-1
 250 675 l 1,83,-1
 188 675 l 1,84,-1
 188 738 l 1,85,-1
 125 738 l 1,86,-1
 125 800 l 1,87,-1
 188 800 l 1,88,-1
 250 800 l 1,89,-1
 312 800 l 1,90,-1
 375 800 l 1,91,-1
 438 800 l 1,92,-1
 500 800 l 1,93,-1
 562 800 l 1,94,-1
 625 800 l 1,95,-1
 688 800 l 1,96,-1
 688 738 l 1,97,-1
 625 738 l 1,98,-1
 625 675 l 1,99,-1
 562 675 l 1,100,-1
 562 612 l 1,101,-1
 500 612 l 1,102,-1
 438 612 l 1,103,-1
 375 612 l 1,104,-1
 312 612 l 1,105,-1
 250 612 l 1,82,-1
EndSplineSet
EndChar

StartChar: char51
Encoding: 51 51 10
Width: 875
Flags: W
LayerCount: 2
Fore
SplineSet
125 -200 m 1,0,-1
 125 -138 l 1,1,-1
 188 -138 l 1,2,-1
 188 -75 l 1,3,-1
 250 -75 l 1,4,-1
 250 -12 l 1,5,-1
 312 -12 l 1,6,-1
 375 -12 l 1,7,-1
 438 -12 l 1,8,-1
 500 -12 l 1,9,-1
 562 -12 l 1,10,-1
 562 -75 l 1,11,-1
 625 -75 l 1,12,-1
 625 -138 l 1,13,-1
 688 -138 l 1,14,-1
 688 -200 l 1,15,-1
 625 -200 l 1,16,-1
 562 -200 l 1,17,-1
 500 -200 l 1,18,-1
 438 -200 l 1,19,-1
 375 -200 l 1,20,-1
 312 -200 l 1,21,-1
 250 -200 l 1,22,-1
 188 -200 l 1,23,-1
 125 -200 l 1,0,-1
688 -138 m 1,24,-1
 688 -75 l 1,25,-1
 625 -75 l 1,26,-1
 625 -12 l 1,27,-1
 562 -12 l 1,28,-1
 562 50 l 1,29,-1
 562 112 l 1,30,-1
 562 175 l 1,31,-1
 562 238 l 1,32,-1
 625 238 l 1,33,-1
 625 300 l 1,34,-1
 688 300 l 1,35,-1
 750 300 l 1,36,-1
 750 238 l 1,37,-1
 750 175 l 1,38,-1
 750 112 l 1,39,-1
 750 50 l 1,40,-1
 750 -12 l 1,41,-1
 750 -75 l 1,42,-1
 750 -138 l 1,43,-1
 688 -138 l 1,24,-1
250 238 m 1,44,-1
 250 300 l 1,45,-1
 188 300 l 1,46,-1
 188 362 l 1,47,-1
 250 362 l 1,48,-1
 250 425 l 1,49,-1
 312 425 l 1,50,-1
 375 425 l 1,51,-1
 438 425 l 1,52,-1
 500 425 l 1,53,-1
 562 425 l 1,54,-1
 562 362 l 1,55,-1
 625 362 l 1,56,-1
 625 300 l 1,57,-1
 562 300 l 1,58,-1
 562 238 l 1,59,-1
 500 238 l 1,60,-1
 438 238 l 1,61,-1
 375 238 l 1,62,-1
 312 238 l 1,63,-1
 250 238 l 1,44,-1
625 362 m 1,64,-1
 625 425 l 1,65,-1
 562 425 l 1,66,-1
 562 488 l 1,67,-1
 562 550 l 1,68,-1
 562 612 l 1,69,-1
 625 612 l 1,70,-1
 625 675 l 1,71,-1
 688 675 l 1,72,-1
 688 738 l 1,73,-1
 750 738 l 1,74,-1
 750 675 l 1,75,-1
 750 612 l 1,76,-1
 750 550 l 1,77,-1
 750 488 l 1,78,-1
 750 425 l 1,79,-1
 750 362 l 1,80,-1
 688 362 l 1,81,-1
 625 362 l 1,64,-1
250 612 m 1,82,-1
 250 675 l 1,83,-1
 188 675 l 1,84,-1
 188 738 l 1,85,-1
 125 738 l 1,86,-1
 125 800 l 1,87,-1
 188 800 l 1,88,-1
 250 800 l 1,89,-1
 312 800 l 1,90,-1
 375 800 l 1,91,-1
 438 800 l 1,92,-1
 500 800 l 1,93,-1
 562 800 l 1,94,-1
 625 800 l 1,95,-1
 688 800 l 1,96,-1
 688 738 l 1,97,-1
 625 738 l 1,98,-1
 625 675 l 1,99,-1
 562 675 l 1,100,-1
 562 612 l 1,101,-1
 500 612 l 1,102,-1
 438 612 l 1,103,-1
 375 612 l 1,104,-1
 312 612 l 1,105,-1
 250 612 l 1,82,-1
EndSplineSet
EndChar

StartChar: char52
Encoding: 52 52 11
Width: 875
Flags: W
LayerCount: 2
Fore
SplineSet
688 -138 m 1,0,-1
 688 -75 l 1,1,-1
 625 -75 l 1,2,-1
 625 -12 l 1,3,-1
 562 -12 l 1,4,-1
 562 50 l 1,5,-1
 562 112 l 1,6,-1
 562 175 l 1,7,-1
 562 238 l 1,8,-1
 625 238 l 1,9,-1
 625 300 l 1,10,-1
 688 300 l 1,11,-1
 750 300 l 1,12,-1
 750 238 l 1,13,-1
 750 175 l 1,14,-1
 750 112 l 1,15,-1
 750 50 l 1,16,-1
 750 -12 l 1,17,-1
 750 -75 l 1,18,-1
 750 -138 l 1,19,-1
 688 -138 l 1,0,-1
250 238 m 1,20,-1
 250 300 l 1,21,-1
 188 300 l 1,22,-1
 188 362 l 1,23,-1
 250 362 l 1,24,-1
 250 425 l 1,25,-1
 312 425 l 1,26,-1
 375 425 l 1,27,-1
 438 425 l 1,28,-1
 500 425 l 1,29,-1
 562 425 l 1,30,-1
 562 362 l 1,31,-1
 625 362 l 1,32,-1
 625 300 l 1,33,-1
 562 300 l 1,34,-1
 562 238 l 1,35,-1
 500 238 l 1,36,-1
 438 238 l 1,37,-1
 375 238 l 1,38,-1
 312 238 l 1,39,-1
 250 238 l 1,20,-1
62 362 m 1,40,-1
 62 425 l 1,41,-1
 62 488 l 1,42,-1
 62 550 l 1,43,-1
 62 612 l 1,44,-1
 62 675 l 1,45,-1
 62 738 l 1,46,-1
 125 738 l 1,47,-1
 125 675 l 1,48,-1
 188 675 l 1,49,-1
 188 612 l 1,50,-1
 250 612 l 1,51,-1
 250 550 l 1,52,-1
 250 488 l 1,53,-1
 250 425 l 1,54,-1
 188 425 l 1,55,-1
 188 362 l 1,56,-1
 125 362 l 1,57,-1
 62 362 l 1,40,-1
625 362 m 1,58,-1
 625 425 l 1,59,-1
 562 425 l 1,60,-1
 562 488 l 1,61,-1
 562 550 l 1,62,-1
 562 612 l 1,63,-1
 625 612 l 1,64,-1
 625 675 l 1,65,-1
 688 675 l 1,66,-1
 688 738 l 1,67,-1
 750 738 l 1,68,-1
 750 675 l 1,69,-1
 750 612 l 1,70,-1
 750 550 l 1,71,-1
 750 488 l 1,72,-1
 750 425 l 1,73,-1
 750 362 l 1,74,-1
 688 362 l 1,75,-1
 625 362 l 1,58,-1
EndSplineSet
EndChar

StartChar: char53
Encoding: 53 53 12
Width: 875
Flags: W
LayerCount: 2
Fore
SplineSet
125 -200 m 1,0,-1
 125 -138 l 1,1,-1
 188 -138 l 1,2,-1
 188 -75 l 1,3,-1
 250 -75 l 1,4,-1
 250 -12 l 1,5,-1
 312 -12 l 1,6,-1
 375 -12 l 1,7,-1
 438 -12 l 1,8,-1
 500 -12 l 1,9,-1
 562 -12 l 1,10,-1
 562 -75 l 1,11,-1
 625 -75 l 1,12,-1
 625 -138 l 1,13,-1
 688 -138 l 1,14,-1
 688 -200 l 1,15,-1
 625 -200 l 1,16,-1
 562 -200 l 1,17,-1
 500 -200 l 1,18,-1
 438 -200 l 1,19,-1
 375 -200 l 1,20,-1
 312 -200 l 1,21,-1
 250 -200 l 1,22,-1
 188 -200 l 1,23,-1
 125 -200 l 1,0,-1
688 -138 m 1,24,-1
 688 -75 l 1,25,-1
 625 -75 l 1,26,-1
 625 -12 l 1,27,-1
 562 -12 l 1,28,-1
 562 50 l 1,29,-1
 562 112 l 1,30,-1
 562 175 l 1,31,-1
 562 238 l 1,32,-1
 625 238 l 1,33,-1
 625 300 l 1,34,-1
 688 300 l 1,35,-1
 750 300 l 1,36,-1
 750 238 l 1,37,-1
 750 175 l 1,38,-1
 750 112 l 1,39,-1
 750 50 l 1,40,-1
 750 -12 l 1,41,-1
 750 -75 l 1,42,-1
 750 -138 l 1,43,-1
 688 -138 l 1,24,-1
250 238 m 1,44,-1
 250 300 l 1,45,-1
 188 300 l 1,46,-1
 188 362 l 1,47,-1
 250 362 l 1,48,-1
 250 425 l 1,49,-1
 312 425 l 1,50,-1
 375 425 l 1,51,-1
 438 425 l 1,52,-1
 500 425 l 1,53,-1
 562 425 l 1,54,-1
 562 362 l 1,55,-1
 625 362 l 1,56,-1
 625 300 l 1,57,-1
 562 300 l 1,58,-1
 562 238 l 1,59,-1
 500 238 l 1,60,-1
 438 238 l 1,61,-1
 375 238 l 1,62,-1
 312 238 l 1,63,-1
 250 238 l 1,44,-1
62 362 m 1,64,-1
 62 425 l 1,65,-1
 62 488 l 1,66,-1
 62 550 l 1,67,-1
 62 612 l 1,68,-1
 62 675 l 1,69,-1
 62 738 l 1,70,-1
 125 738 l 1,71,-1
 125 675 l 1,72,-1
 188 675 l 1,73,-1
 188 612 l 1,74,-1
 250 612 l 1,75,-1
 250 550 l 1,76,-1
 250 488 l 1,77,-1
 250 425 l 1,78,-1
 188 425 l 1,79,-1
 188 362 l 1,80,-1
 125 362 l 1,81,-1
 62 362 l 1,64,-1
250 612 m 1,82,-1
 250 675 l 1,83,-1
 188 675 l 1,84,-1
 188 738 l 1,85,-1
 125 738 l 1,86,-1
 125 800 l 1,87,-1
 188 800 l 1,88,-1
 250 800 l 1,89,-1
 312 800 l 1,90,-1
 375 800 l 1,91,-1
 438 800 l 1,92,-1
 500 800 l 1,93,-1
 562 800 l 1,94,-1
 625 800 l 1,95,-1
 688 800 l 1,96,-1
 688 738 l 1,97,-1
 625 738 l 1,98,-1
 625 675 l 1,99,-1
 562 675 l 1,100,-1
 562 612 l 1,101,-1
 500 612 l 1,102,-1
 438 612 l 1,103,-1
 375 612 l 1,104,-1
 312 612 l 1,105,-1
 250 612 l 1,82,-1
EndSplineSet
EndChar

StartChar: char54
Encoding: 54 54 13
Width: 875
Flags: W
LayerCount: 2
Fore
SplineSet
125 -200 m 1,0,-1
 125 -138 l 1,1,-1
 188 -138 l 1,2,-1
 188 -75 l 1,3,-1
 250 -75 l 1,4,-1
 250 -12 l 1,5,-1
 312 -12 l 1,6,-1
 375 -12 l 1,7,-1
 438 -12 l 1,8,-1
 500 -12 l 1,9,-1
 562 -12 l 1,10,-1
 562 -75 l 1,11,-1
 625 -75 l 1,12,-1
 625 -138 l 1,13,-1
 688 -138 l 1,14,-1
 688 -200 l 1,15,-1
 625 -200 l 1,16,-1
 562 -200 l 1,17,-1
 500 -200 l 1,18,-1
 438 -200 l 1,19,-1
 375 -200 l 1,20,-1
 312 -200 l 1,21,-1
 250 -200 l 1,22,-1
 188 -200 l 1,23,-1
 125 -200 l 1,0,-1
62 -138 m 1,24,-1
 62 -75 l 1,25,-1
 62 -12 l 1,26,-1
 62 50 l 1,27,-1
 62 112 l 1,28,-1
 62 175 l 1,29,-1
 62 238 l 1,30,-1
 62 300 l 1,31,-1
 125 300 l 1,32,-1
 188 300 l 1,33,-1
 188 238 l 1,34,-1
 250 238 l 1,35,-1
 250 175 l 1,36,-1
 250 112 l 1,37,-1
 250 50 l 1,38,-1
 250 -12 l 1,39,-1
 188 -12 l 1,40,-1
 188 -75 l 1,41,-1
 125 -75 l 1,42,-1
 125 -138 l 1,43,-1
 62 -138 l 1,24,-1
688 -138 m 1,44,-1
 688 -75 l 1,45,-1
 625 -75 l 1,46,-1
 625 -12 l 1,47,-1
 562 -12 l 1,48,-1
 562 50 l 1,49,-1
 562 112 l 1,50,-1
 562 175 l 1,51,-1
 562 238 l 1,52,-1
 625 238 l 1,53,-1
 625 300 l 1,54,-1
 688 300 l 1,55,-1
 750 300 l 1,56,-1
 750 238 l 1,57,-1
 750 175 l 1,58,-1
 750 112 l 1,59,-1
 750 50 l 1,60,-1
 750 -12 l 1,61,-1
 750 -75 l 1,62,-1
 750 -138 l 1,63,-1
 688 -138 l 1,44,-1
250 238 m 1,64,-1
 250 300 l 1,65,-1
 188 300 l 1,66,-1
 188 362 l 1,67,-1
 250 362 l 1,68,-1
 250 425 l 1,69,-1
 312 425 l 1,70,-1
 375 425 l 1,71,-1
 438 425 l 1,72,-1
 500 425 l 1,73,-1
 562 425 l 1,74,-1
 562 362 l 1,75,-1
 625 362 l 1,76,-1
 625 300 l 1,77,-1
 562 300 l 1,78,-1
 562 238 l 1,79,-1
 500 238 l 1,80,-1
 438 238 l 1,81,-1
 375 238 l 1,82,-1
 312 238 l 1,83,-1
 250 238 l 1,64,-1
62 362 m 1,84,-1
 62 425 l 1,85,-1
 62 488 l 1,86,-1
 62 550 l 1,87,-1
 62 612 l 1,88,-1
 62 675 l 1,89,-1
 62 738 l 1,90,-1
 125 738 l 1,91,-1
 125 675 l 1,92,-1
 188 675 l 1,93,-1
 188 612 l 1,94,-1
 250 612 l 1,95,-1
 250 550 l 1,96,-1
 250 488 l 1,97,-1
 250 425 l 1,98,-1
 188 425 l 1,99,-1
 188 362 l 1,100,-1
 125 362 l 1,101,-1
 62 362 l 1,84,-1
250 612 m 1,102,-1
 250 675 l 1,103,-1
 188 675 l 1,104,-1
 188 738 l 1,105,-1
 125 738 l 1,106,-1
 125 800 l 1,107,-1
 188 800 l 1,108,-1
 250 800 l 1,109,-1
 312 800 l 1,110,-1
 375 800 l 1,111,-1
 438 800 l 1,112,-1
 500 800 l 1,113,-1
 562 800 l 1,114,-1
 625 800 l 1,115,-1
 688 800 l 1,116,-1
 688 738 l 1,117,-1
 625 738 l 1,118,-1
 625 675 l 1,119,-1
 562 675 l 1,120,-1
 562 612 l 1,121,-1
 500 612 l 1,122,-1
 438 612 l 1,123,-1
 375 612 l 1,124,-1
 312 612 l 1,125,-1
 250 612 l 1,102,-1
EndSplineSet
EndChar

StartChar: char55
Encoding: 55 55 14
Width: 875
Flags: W
LayerCount: 2
Fore
SplineSet
688 -138 m 1,0,-1
 688 -75 l 1,1,-1
 625 -75 l 1,2,-1
 625 -12 l 1,3,-1
 562 -12 l 1,4,-1
 562 50 l 1,5,-1
 562 112 l 1,6,-1
 562 175 l 1,7,-1
 562 238 l 1,8,-1
 625 238 l 1,9,-1
 625 300 l 1,10,-1
 688 300 l 1,11,-1
 750 300 l 1,12,-1
 750 238 l 1,13,-1
 750 175 l 1,14,-1
 750 112 l 1,15,-1
 750 50 l 1,16,-1
 750 -12 l 1,17,-1
 750 -75 l 1,18,-1
 750 -138 l 1,19,-1
 688 -138 l 1,0,-1
62 362 m 1,20,-1
 62 425 l 1,21,-1
 62 488 l 1,22,-1
 62 550 l 1,23,-1
 62 612 l 1,24,-1
 62 675 l 1,25,-1
 62 738 l 1,26,-1
 125 738 l 1,27,-1
 125 675 l 1,28,-1
 188 675 l 1,29,-1
 188 612 l 1,30,-1
 250 612 l 1,31,-1
 250 550 l 1,32,-1
 250 488 l 1,33,-1
 250 425 l 1,34,-1
 188 425 l 1,35,-1
 188 362 l 1,36,-1
 125 362 l 1,37,-1
 62 362 l 1,20,-1
625 362 m 1,38,-1
 625 425 l 1,39,-1
 562 425 l 1,40,-1
 562 488 l 1,41,-1
 562 550 l 1,42,-1
 562 612 l 1,43,-1
 625 612 l 1,44,-1
 625 675 l 1,45,-1
 688 675 l 1,46,-1
 688 738 l 1,47,-1
 750 738 l 1,48,-1
 750 675 l 1,49,-1
 750 612 l 1,50,-1
 750 550 l 1,51,-1
 750 488 l 1,52,-1
 750 425 l 1,53,-1
 750 362 l 1,54,-1
 688 362 l 1,55,-1
 625 362 l 1,38,-1
250 612 m 1,56,-1
 250 675 l 1,57,-1
 188 675 l 1,58,-1
 188 738 l 1,59,-1
 125 738 l 1,60,-1
 125 800 l 1,61,-1
 188 800 l 1,62,-1
 250 800 l 1,63,-1
 312 800 l 1,64,-1
 375 800 l 1,65,-1
 438 800 l 1,66,-1
 500 800 l 1,67,-1
 562 800 l 1,68,-1
 625 800 l 1,69,-1
 688 800 l 1,70,-1
 688 738 l 1,71,-1
 625 738 l 1,72,-1
 625 675 l 1,73,-1
 562 675 l 1,74,-1
 562 612 l 1,75,-1
 500 612 l 1,76,-1
 438 612 l 1,77,-1
 375 612 l 1,78,-1
 312 612 l 1,79,-1
 250 612 l 1,56,-1
EndSplineSet
EndChar

StartChar: char56
Encoding: 56 56 15
Width: 875
Flags: W
LayerCount: 2
Fore
SplineSet
125 -200 m 1,0,-1
 125 -138 l 1,1,-1
 188 -138 l 1,2,-1
 188 -75 l 1,3,-1
 250 -75 l 1,4,-1
 250 -12 l 1,5,-1
 312 -12 l 1,6,-1
 375 -12 l 1,7,-1
 438 -12 l 1,8,-1
 500 -12 l 1,9,-1
 562 -12 l 1,10,-1
 562 -75 l 1,11,-1
 625 -75 l 1,12,-1
 625 -138 l 1,13,-1
 688 -138 l 1,14,-1
 688 -200 l 1,15,-1
 625 -200 l 1,16,-1
 562 -200 l 1,17,-1
 500 -200 l 1,18,-1
 438 -200 l 1,19,-1
 375 -200 l 1,20,-1
 312 -200 l 1,21,-1
 250 -200 l 1,22,-1
 188 -200 l 1,23,-1
 125 -200 l 1,0,-1
62 -138 m 1,24,-1
 62 -75 l 1,25,-1
 62 -12 l 1,26,-1
 62 50 l 1,27,-1
 62 112 l 1,28,-1
 62 175 l 1,29,-1
 62 238 l 1,30,-1
 62 300 l 1,31,-1
 125 300 l 1,32,-1
 188 300 l 1,33,-1
 188 238 l 1,34,-1
 250 238 l 1,35,-1
 250 175 l 1,36,-1
 250 112 l 1,37,-1
 250 50 l 1,38,-1
 250 -12 l 1,39,-1
 188 -12 l 1,40,-1
 188 -75 l 1,41,-1
 125 -75 l 1,42,-1
 125 -138 l 1,43,-1
 62 -138 l 1,24,-1
688 -138 m 1,44,-1
 688 -75 l 1,45,-1
 625 -75 l 1,46,-1
 625 -12 l 1,47,-1
 562 -12 l 1,48,-1
 562 50 l 1,49,-1
 562 112 l 1,50,-1
 562 175 l 1,51,-1
 562 238 l 1,52,-1
 625 238 l 1,53,-1
 625 300 l 1,54,-1
 688 300 l 1,55,-1
 750 300 l 1,56,-1
 750 238 l 1,57,-1
 750 175 l 1,58,-1
 750 112 l 1,59,-1
 750 50 l 1,60,-1
 750 -12 l 1,61,-1
 750 -75 l 1,62,-1
 750 -138 l 1,63,-1
 688 -138 l 1,44,-1
250 238 m 1,64,-1
 250 300 l 1,65,-1
 188 300 l 1,66,-1
 188 362 l 1,67,-1
 250 362 l 1,68,-1
 250 425 l 1,69,-1
 312 425 l 1,70,-1
 375 425 l 1,71,-1
 438 425 l 1,72,-1
 500 425 l 1,73,-1
 562 425 l 1,74,-1
 562 362 l 1,75,-1
 625 362 l 1,76,-1
 625 300 l 1,77,-1
 562 300 l 1,78,-1
 562 238 l 1,79,-1
 500 238 l 1,80,-1
 438 238 l 1,81,-1
 375 238 l 1,82,-1
 312 238 l 1,83,-1
 250 238 l 1,64,-1
62 362 m 1,84,-1
 62 425 l 1,85,-1
 62 488 l 1,86,-1
 62 550 l 1,87,-1
 62 612 l 1,88,-1
 62 675 l 1,89,-1
 62 738 l 1,90,-1
 125 738 l 1,91,-1
 125 675 l 1,92,-1
 188 675 l 1,93,-1
 188 612 l 1,94,-1
 250 612 l 1,95,-1
 250 550 l 1,96,-1
 250 488 l 1,97,-1
 250 425 l 1,98,-1
 188 425 l 1,99,-1
 188 362 l 1,100,-1
 125 362 l 1,101,-1
 62 362 l 1,84,-1
625 362 m 1,102,-1
 625 425 l 1,103,-1
 562 425 l 1,104,-1
 562 488 l 1,105,-1
 562 550 l 1,106,-1
 562 612 l 1,107,-1
 625 612 l 1,108,-1
 625 675 l 1,109,-1
 688 675 l 1,110,-1
 688 738 l 1,111,-1
 750 738 l 1,112,-1
 750 675 l 1,113,-1
 750 612 l 1,114,-1
 750 550 l 1,115,-1
 750 488 l 1,116,-1
 750 425 l 1,117,-1
 750 362 l 1,118,-1
 688 362 l 1,119,-1
 625 362 l 1,102,-1
250 612 m 1,120,-1
 250 675 l 1,121,-1
 188 675 l 1,122,-1
 188 738 l 1,123,-1
 125 738 l 1,124,-1
 125 800 l 1,125,-1
 188 800 l 1,126,-1
 250 800 l 1,127,-1
 312 800 l 1,128,-1
 375 800 l 1,129,-1
 438 800 l 1,130,-1
 500 800 l 1,131,-1
 562 800 l 1,132,-1
 625 800 l 1,133,-1
 688 800 l 1,134,-1
 688 738 l 1,135,-1
 625 738 l 1,136,-1
 625 675 l 1,137,-1
 562 675 l 1,138,-1
 562 612 l 1,139,-1
 500 612 l 1,140,-1
 438 612 l 1,141,-1
 375 612 l 1,142,-1
 312 612 l 1,143,-1
 250 612 l 1,120,-1
EndSplineSet
EndChar

StartChar: char57
Encoding: 57 57 16
Width: 875
Flags: W
LayerCount: 2
Fore
SplineSet
125 -200 m 1,0,-1
 125 -138 l 1,1,-1
 188 -138 l 1,2,-1
 188 -75 l 1,3,-1
 250 -75 l 1,4,-1
 250 -12 l 1,5,-1
 312 -12 l 1,6,-1
 375 -12 l 1,7,-1
 438 -12 l 1,8,-1
 500 -12 l 1,9,-1
 562 -12 l 1,10,-1
 562 -75 l 1,11,-1
 625 -75 l 1,12,-1
 625 -138 l 1,13,-1
 688 -138 l 1,14,-1
 688 -200 l 1,15,-1
 625 -200 l 1,16,-1
 562 -200 l 1,17,-1
 500 -200 l 1,18,-1
 438 -200 l 1,19,-1
 375 -200 l 1,20,-1
 312 -200 l 1,21,-1
 250 -200 l 1,22,-1
 188 -200 l 1,23,-1
 125 -200 l 1,0,-1
688 -138 m 1,24,-1
 688 -75 l 1,25,-1
 625 -75 l 1,26,-1
 625 -12 l 1,27,-1
 562 -12 l 1,28,-1
 562 50 l 1,29,-1
 562 112 l 1,30,-1
 562 175 l 1,31,-1
 562 238 l 1,32,-1
 625 238 l 1,33,-1
 625 300 l 1,34,-1
 688 300 l 1,35,-1
 750 300 l 1,36,-1
 750 238 l 1,37,-1
 750 175 l 1,38,-1
 750 112 l 1,39,-1
 750 50 l 1,40,-1
 750 -12 l 1,41,-1
 750 -75 l 1,42,-1
 750 -138 l 1,43,-1
 688 -138 l 1,24,-1
250 238 m 1,44,-1
 250 300 l 1,45,-1
 188 300 l 1,46,-1
 188 362 l 1,47,-1
 250 362 l 1,48,-1
 250 425 l 1,49,-1
 312 425 l 1,50,-1
 375 425 l 1,51,-1
 438 425 l 1,52,-1
 500 425 l 1,53,-1
 562 425 l 1,54,-1
 562 362 l 1,55,-1
 625 362 l 1,56,-1
 625 300 l 1,57,-1
 562 300 l 1,58,-1
 562 238 l 1,59,-1
 500 238 l 1,60,-1
 438 238 l 1,61,-1
 375 238 l 1,62,-1
 312 238 l 1,63,-1
 250 238 l 1,44,-1
62 362 m 1,64,-1
 62 425 l 1,65,-1
 62 488 l 1,66,-1
 62 550 l 1,67,-1
 62 612 l 1,68,-1
 62 675 l 1,69,-1
 62 738 l 1,70,-1
 125 738 l 1,71,-1
 125 675 l 1,72,-1
 188 675 l 1,73,-1
 188 612 l 1,74,-1
 250 612 l 1,75,-1
 250 550 l 1,76,-1
 250 488 l 1,77,-1
 250 425 l 1,78,-1
 188 425 l 1,79,-1
 188 362 l 1,80,-1
 125 362 l 1,81,-1
 62 362 l 1,64,-1
625 362 m 1,82,-1
 625 425 l 1,83,-1
 562 425 l 1,84,-1
 562 488 l 1,85,-1
 562 550 l 1,86,-1
 562 612 l 1,87,-1
 625 612 l 1,88,-1
 625 675 l 1,89,-1
 688 675 l 1,90,-1
 688 738 l 1,91,-1
 750 738 l 1,92,-1
 750 675 l 1,93,-1
 750 612 l 1,94,-1
 750 550 l 1,95,-1
 750 488 l 1,96,-1
 750 425 l 1,97,-1
 750 362 l 1,98,-1
 688 362 l 1,99,-1
 625 362 l 1,82,-1
250 612 m 1,100,-1
 250 675 l 1,101,-1
 188 675 l 1,102,-1
 188 738 l 1,103,-1
 125 738 l 1,104,-1
 125 800 l 1,105,-1
 188 800 l 1,106,-1
 250 800 l 1,107,-1
 312 800 l 1,108,-1
 375 800 l 1,109,-1
 438 800 l 1,110,-1
 500 800 l 1,111,-1
 562 800 l 1,112,-1
 625 800 l 1,113,-1
 688 800 l 1,114,-1
 688 738 l 1,115,-1
 625 738 l 1,116,-1
 625 675 l 1,117,-1
 562 675 l 1,118,-1
 562 612 l 1,119,-1
 500 612 l 1,120,-1
 438 612 l 1,121,-1
 375 612 l 1,122,-1
 312 612 l 1,123,-1
 250 612 l 1,100,-1
EndSplineSet
EndChar

StartChar: char56
Encoding: 58 58 17
Width: 875
Flags: W
LayerCount: 2
Fore
SplineSet
125 -200 m 1,0,-1
 125 -138 l 1,1,-1
 188 -138 l 1,2,-1
 188 -75 l 1,3,-1
 250 -75 l 1,4,-1
 250 -12 l 1,5,-1
 312 -12 l 1,6,-1
 375 -12 l 1,7,-1
 438 -12 l 1,8,-1
 500 -12 l 1,9,-1
 562 -12 l 1,10,-1
 562 -75 l 1,11,-1
 625 -75 l 1,12,-1
 625 -138 l 1,13,-1
 688 -138 l 1,14,-1
 688 -200 l 1,15,-1
 625 -200 l 1,16,-1
 562 -200 l 1,17,-1
 500 -200 l 1,18,-1
 438 -200 l 1,19,-1
 375 -200 l 1,20,-1
 312 -200 l 1,21,-1
 250 -200 l 1,22,-1
 188 -200 l 1,23,-1
 125 -200 l 1,0,-1
250 238 m 1,24,-1
 250 300 l 1,25,-1
 188 300 l 1,26,-1
 188 362 l 1,27,-1
 250 362 l 1,28,-1
 250 425 l 1,29,-1
 312 425 l 1,30,-1
 375 425 l 1,31,-1
 438 425 l 1,32,-1
 500 425 l 1,33,-1
 562 425 l 1,34,-1
 562 362 l 1,35,-1
 625 362 l 1,36,-1
 625 300 l 1,37,-1
 562 300 l 1,38,-1
 562 238 l 1,39,-1
 500 238 l 1,40,-1
 438 238 l 1,41,-1
 375 238 l 1,42,-1
 312 238 l 1,43,-1
 250 238 l 1,24,-1
EndSplineSet
EndChar

StartChar: char56
Encoding: 65 65 18
Width: 875
Flags: W
LayerCount: 2
Fore
SplineSet
62 -138 m 1,0,-1
 62 -75 l 1,1,-1
 62 -12 l 1,2,-1
 62 50 l 1,3,-1
 62 112 l 1,4,-1
 62 175 l 1,5,-1
 62 238 l 1,6,-1
 62 300 l 1,7,-1
 125 300 l 1,8,-1
 188 300 l 1,9,-1
 188 238 l 1,10,-1
 250 238 l 1,11,-1
 250 175 l 1,12,-1
 250 112 l 1,13,-1
 250 50 l 1,14,-1
 250 -12 l 1,15,-1
 188 -12 l 1,16,-1
 188 -75 l 1,17,-1
 125 -75 l 1,18,-1
 125 -138 l 1,19,-1
 62 -138 l 1,0,-1
688 -138 m 1,20,-1
 688 -75 l 1,21,-1
 625 -75 l 1,22,-1
 625 -12 l 1,23,-1
 562 -12 l 1,24,-1
 562 50 l 1,25,-1
 562 112 l 1,26,-1
 562 175 l 1,27,-1
 562 238 l 1,28,-1
 625 238 l 1,29,-1
 625 300 l 1,30,-1
 688 300 l 1,31,-1
 750 300 l 1,32,-1
 750 238 l 1,33,-1
 750 175 l 1,34,-1
 750 112 l 1,35,-1
 750 50 l 1,36,-1
 750 -12 l 1,37,-1
 750 -75 l 1,38,-1
 750 -138 l 1,39,-1
 688 -138 l 1,20,-1
250 238 m 1,40,-1
 250 300 l 1,41,-1
 188 300 l 1,42,-1
 188 362 l 1,43,-1
 250 362 l 1,44,-1
 250 425 l 1,45,-1
 312 425 l 1,46,-1
 375 425 l 1,47,-1
 438 425 l 1,48,-1
 500 425 l 1,49,-1
 562 425 l 1,50,-1
 562 362 l 1,51,-1
 625 362 l 1,52,-1
 625 300 l 1,53,-1
 562 300 l 1,54,-1
 562 238 l 1,55,-1
 500 238 l 1,56,-1
 438 238 l 1,57,-1
 375 238 l 1,58,-1
 312 238 l 1,59,-1
 250 238 l 1,40,-1
62 362 m 1,60,-1
 62 425 l 1,61,-1
 62 488 l 1,62,-1
 62 550 l 1,63,-1
 62 612 l 1,64,-1
 62 675 l 1,65,-1
 62 738 l 1,66,-1
 125 738 l 1,67,-1
 125 675 l 1,68,-1
 188 675 l 1,69,-1
 188 612 l 1,70,-1
 250 612 l 1,71,-1
 250 550 l 1,72,-1
 250 488 l 1,73,-1
 250 425 l 1,74,-1
 188 425 l 1,75,-1
 188 362 l 1,76,-1
 125 362 l 1,77,-1
 62 362 l 1,60,-1
625 362 m 1,78,-1
 625 425 l 1,79,-1
 562 425 l 1,80,-1
 562 488 l 1,81,-1
 562 550 l 1,82,-1
 562 612 l 1,83,-1
 625 612 l 1,84,-1
 625 675 l 1,85,-1
 688 675 l 1,86,-1
 688 738 l 1,87,-1
 750 738 l 1,88,-1
 750 675 l 1,89,-1
 750 612 l 1,90,-1
 750 550 l 1,91,-1
 750 488 l 1,92,-1
 750 425 l 1,93,-1
 750 362 l 1,94,-1
 688 362 l 1,95,-1
 625 362 l 1,78,-1
250 612 m 1,96,-1
 250 675 l 1,97,-1
 188 675 l 1,98,-1
 188 738 l 1,99,-1
 125 738 l 1,100,-1
 125 800 l 1,101,-1
 188 800 l 1,102,-1
 250 800 l 1,103,-1
 312 800 l 1,104,-1
 375 800 l 1,105,-1
 438 800 l 1,106,-1
 500 800 l 1,107,-1
 562 800 l 1,108,-1
 625 800 l 1,109,-1
 688 800 l 1,110,-1
 688 738 l 1,111,-1
 625 738 l 1,112,-1
 625 675 l 1,113,-1
 562 675 l 1,114,-1
 562 612 l 1,115,-1
 500 612 l 1,116,-1
 438 612 l 1,117,-1
 375 612 l 1,118,-1
 312 612 l 1,119,-1
 250 612 l 1,96,-1
EndSplineSet
EndChar

StartChar: char56
Encoding: 66 66 19
Width: 875
Flags: W
LayerCount: 2
Fore
SplineSet
125 -200 m 1,0,-1
 125 -138 l 1,1,-1
 188 -138 l 1,2,-1
 188 -75 l 1,3,-1
 250 -75 l 1,4,-1
 250 -12 l 1,5,-1
 312 -12 l 1,6,-1
 375 -12 l 1,7,-1
 438 -12 l 1,8,-1
 500 -12 l 1,9,-1
 562 -12 l 1,10,-1
 562 -75 l 1,11,-1
 625 -75 l 1,12,-1
 625 -138 l 1,13,-1
 688 -138 l 1,14,-1
 688 -200 l 1,15,-1
 625 -200 l 1,16,-1
 562 -200 l 1,17,-1
 500 -200 l 1,18,-1
 438 -200 l 1,19,-1
 375 -200 l 1,20,-1
 312 -200 l 1,21,-1
 250 -200 l 1,22,-1
 188 -200 l 1,23,-1
 125 -200 l 1,0,-1
62 -138 m 1,24,-1
 62 -75 l 1,25,-1
 62 -12 l 1,26,-1
 62 50 l 1,27,-1
 62 112 l 1,28,-1
 62 175 l 1,29,-1
 62 238 l 1,30,-1
 62 300 l 1,31,-1
 125 300 l 1,32,-1
 188 300 l 1,33,-1
 188 238 l 1,34,-1
 250 238 l 1,35,-1
 250 175 l 1,36,-1
 250 112 l 1,37,-1
 250 50 l 1,38,-1
 250 -12 l 1,39,-1
 188 -12 l 1,40,-1
 188 -75 l 1,41,-1
 125 -75 l 1,42,-1
 125 -138 l 1,43,-1
 62 -138 l 1,24,-1
688 -138 m 1,44,-1
 688 -75 l 1,45,-1
 625 -75 l 1,46,-1
 625 -12 l 1,47,-1
 562 -12 l 1,48,-1
 562 50 l 1,49,-1
 562 112 l 1,50,-1
 562 175 l 1,51,-1
 562 238 l 1,52,-1
 625 238 l 1,53,-1
 625 300 l 1,54,-1
 688 300 l 1,55,-1
 750 300 l 1,56,-1
 750 238 l 1,57,-1
 750 175 l 1,58,-1
 750 112 l 1,59,-1
 750 50 l 1,60,-1
 750 -12 l 1,61,-1
 750 -75 l 1,62,-1
 750 -138 l 1,63,-1
 688 -138 l 1,44,-1
250 238 m 1,64,-1
 250 300 l 1,65,-1
 188 300 l 1,66,-1
 188 362 l 1,67,-1
 250 362 l 1,68,-1
 250 425 l 1,69,-1
 312 425 l 1,70,-1
 375 425 l 1,71,-1
 438 425 l 1,72,-1
 500 425 l 1,73,-1
 562 425 l 1,74,-1
 562 362 l 1,75,-1
 625 362 l 1,76,-1
 625 300 l 1,77,-1
 562 300 l 1,78,-1
 562 238 l 1,79,-1
 500 238 l 1,80,-1
 438 238 l 1,81,-1
 375 238 l 1,82,-1
 312 238 l 1,83,-1
 250 238 l 1,64,-1
62 362 m 1,84,-1
 62 425 l 1,85,-1
 62 488 l 1,86,-1
 62 550 l 1,87,-1
 62 612 l 1,88,-1
 62 675 l 1,89,-1
 62 738 l 1,90,-1
 125 738 l 1,91,-1
 125 675 l 1,92,-1
 188 675 l 1,93,-1
 188 612 l 1,94,-1
 250 612 l 1,95,-1
 250 550 l 1,96,-1
 250 488 l 1,97,-1
 250 425 l 1,98,-1
 188 425 l 1,99,-1
 188 362 l 1,100,-1
 125 362 l 1,101,-1
 62 362 l 1,84,-1
EndSplineSet
EndChar

StartChar: char56
Encoding: 67 67 20
Width: 875
Flags: W
LayerCount: 2
Fore
SplineSet
125 -200 m 1,0,-1
 125 -138 l 1,1,-1
 188 -138 l 1,2,-1
 188 -75 l 1,3,-1
 250 -75 l 1,4,-1
 250 -12 l 1,5,-1
 312 -12 l 1,6,-1
 375 -12 l 1,7,-1
 438 -12 l 1,8,-1
 500 -12 l 1,9,-1
 562 -12 l 1,10,-1
 562 -75 l 1,11,-1
 625 -75 l 1,12,-1
 625 -138 l 1,13,-1
 688 -138 l 1,14,-1
 688 -200 l 1,15,-1
 625 -200 l 1,16,-1
 562 -200 l 1,17,-1
 500 -200 l 1,18,-1
 438 -200 l 1,19,-1
 375 -200 l 1,20,-1
 312 -200 l 1,21,-1
 250 -200 l 1,22,-1
 188 -200 l 1,23,-1
 125 -200 l 1,0,-1
62 -138 m 1,24,-1
 62 -75 l 1,25,-1
 62 -12 l 1,26,-1
 62 50 l 1,27,-1
 62 112 l 1,28,-1
 62 175 l 1,29,-1
 62 238 l 1,30,-1
 62 300 l 1,31,-1
 125 300 l 1,32,-1
 188 300 l 1,33,-1
 188 238 l 1,34,-1
 250 238 l 1,35,-1
 250 175 l 1,36,-1
 250 112 l 1,37,-1
 250 50 l 1,38,-1
 250 -12 l 1,39,-1
 188 -12 l 1,40,-1
 188 -75 l 1,41,-1
 125 -75 l 1,42,-1
 125 -138 l 1,43,-1
 62 -138 l 1,24,-1
62 362 m 1,44,-1
 62 425 l 1,45,-1
 62 488 l 1,46,-1
 62 550 l 1,47,-1
 62 612 l 1,48,-1
 62 675 l 1,49,-1
 62 738 l 1,50,-1
 125 738 l 1,51,-1
 125 675 l 1,52,-1
 188 675 l 1,53,-1
 188 612 l 1,54,-1
 250 612 l 1,55,-1
 250 550 l 1,56,-1
 250 488 l 1,57,-1
 250 425 l 1,58,-1
 188 425 l 1,59,-1
 188 362 l 1,60,-1
 125 362 l 1,61,-1
 62 362 l 1,44,-1
250 612 m 1,62,-1
 250 675 l 1,63,-1
 188 675 l 1,64,-1
 188 738 l 1,65,-1
 125 738 l 1,66,-1
 125 800 l 1,67,-1
 188 800 l 1,68,-1
 250 800 l 1,69,-1
 312 800 l 1,70,-1
 375 800 l 1,71,-1
 438 800 l 1,72,-1
 500 800 l 1,73,-1
 562 800 l 1,74,-1
 625 800 l 1,75,-1
 688 800 l 1,76,-1
 688 738 l 1,77,-1
 625 738 l 1,78,-1
 625 675 l 1,79,-1
 562 675 l 1,80,-1
 562 612 l 1,81,-1
 500 612 l 1,82,-1
 438 612 l 1,83,-1
 375 612 l 1,84,-1
 312 612 l 1,85,-1
 250 612 l 1,62,-1
EndSplineSet
EndChar

StartChar: char56
Encoding: 68 68 21
Width: 875
Flags: W
LayerCount: 2
Fore
SplineSet
125 -200 m 1,0,-1
 125 -138 l 1,1,-1
 188 -138 l 1,2,-1
 188 -75 l 1,3,-1
 250 -75 l 1,4,-1
 250 -12 l 1,5,-1
 312 -12 l 1,6,-1
 375 -12 l 1,7,-1
 438 -12 l 1,8,-1
 500 -12 l 1,9,-1
 562 -12 l 1,10,-1
 562 -75 l 1,11,-1
 625 -75 l 1,12,-1
 625 -138 l 1,13,-1
 688 -138 l 1,14,-1
 688 -200 l 1,15,-1
 625 -200 l 1,16,-1
 562 -200 l 1,17,-1
 500 -200 l 1,18,-1
 438 -200 l 1,19,-1
 375 -200 l 1,20,-1
 312 -200 l 1,21,-1
 250 -200 l 1,22,-1
 188 -200 l 1,23,-1
 125 -200 l 1,0,-1
62 -138 m 1,24,-1
 62 -75 l 1,25,-1
 62 -12 l 1,26,-1
 62 50 l 1,27,-1
 62 112 l 1,28,-1
 62 175 l 1,29,-1
 62 238 l 1,30,-1
 62 300 l 1,31,-1
 125 300 l 1,32,-1
 188 300 l 1,33,-1
 188 238 l 1,34,-1
 250 238 l 1,35,-1
 250 175 l 1,36,-1
 250 112 l 1,37,-1
 250 50 l 1,38,-1
 250 -12 l 1,39,-1
 188 -12 l 1,40,-1
 188 -75 l 1,41,-1
 125 -75 l 1,42,-1
 125 -138 l 1,43,-1
 62 -138 l 1,24,-1
688 -138 m 1,44,-1
 688 -75 l 1,45,-1
 625 -75 l 1,46,-1
 625 -12 l 1,47,-1
 562 -12 l 1,48,-1
 562 50 l 1,49,-1
 562 112 l 1,50,-1
 562 175 l 1,51,-1
 562 238 l 1,52,-1
 625 238 l 1,53,-1
 625 300 l 1,54,-1
 688 300 l 1,55,-1
 750 300 l 1,56,-1
 750 238 l 1,57,-1
 750 175 l 1,58,-1
 750 112 l 1,59,-1
 750 50 l 1,60,-1
 750 -12 l 1,61,-1
 750 -75 l 1,62,-1
 750 -138 l 1,63,-1
 688 -138 l 1,44,-1
250 238 m 1,64,-1
 250 300 l 1,65,-1
 188 300 l 1,66,-1
 188 362 l 1,67,-1
 250 362 l 1,68,-1
 250 425 l 1,69,-1
 312 425 l 1,70,-1
 375 425 l 1,71,-1
 438 425 l 1,72,-1
 500 425 l 1,73,-1
 562 425 l 1,74,-1
 562 362 l 1,75,-1
 625 362 l 1,76,-1
 625 300 l 1,77,-1
 562 300 l 1,78,-1
 562 238 l 1,79,-1
 500 238 l 1,80,-1
 438 238 l 1,81,-1
 375 238 l 1,82,-1
 312 238 l 1,83,-1
 250 238 l 1,64,-1
625 362 m 1,84,-1
 625 425 l 1,85,-1
 562 425 l 1,86,-1
 562 488 l 1,87,-1
 562 550 l 1,88,-1
 562 612 l 1,89,-1
 625 612 l 1,90,-1
 625 675 l 1,91,-1
 688 675 l 1,92,-1
 688 738 l 1,93,-1
 750 738 l 1,94,-1
 750 675 l 1,95,-1
 750 612 l 1,96,-1
 750 550 l 1,97,-1
 750 488 l 1,98,-1
 750 425 l 1,99,-1
 750 362 l 1,100,-1
 688 362 l 1,101,-1
 625 362 l 1,84,-1
EndSplineSet
EndChar

StartChar: char56
Encoding: 69 69 22
Width: 875
Flags: W
LayerCount: 2
Fore
SplineSet
125 -200 m 1,0,-1
 125 -138 l 1,1,-1
 188 -138 l 1,2,-1
 188 -75 l 1,3,-1
 250 -75 l 1,4,-1
 250 -12 l 1,5,-1
 312 -12 l 1,6,-1
 375 -12 l 1,7,-1
 438 -12 l 1,8,-1
 500 -12 l 1,9,-1
 562 -12 l 1,10,-1
 562 -75 l 1,11,-1
 625 -75 l 1,12,-1
 625 -138 l 1,13,-1
 688 -138 l 1,14,-1
 688 -200 l 1,15,-1
 625 -200 l 1,16,-1
 562 -200 l 1,17,-1
 500 -200 l 1,18,-1
 438 -200 l 1,19,-1
 375 -200 l 1,20,-1
 312 -200 l 1,21,-1
 250 -200 l 1,22,-1
 188 -200 l 1,23,-1
 125 -200 l 1,0,-1
62 -138 m 1,24,-1
 62 -75 l 1,25,-1
 62 -12 l 1,26,-1
 62 50 l 1,27,-1
 62 112 l 1,28,-1
 62 175 l 1,29,-1
 62 238 l 1,30,-1
 62 300 l 1,31,-1
 125 300 l 1,32,-1
 188 300 l 1,33,-1
 188 238 l 1,34,-1
 250 238 l 1,35,-1
 250 175 l 1,36,-1
 250 112 l 1,37,-1
 250 50 l 1,38,-1
 250 -12 l 1,39,-1
 188 -12 l 1,40,-1
 188 -75 l 1,41,-1
 125 -75 l 1,42,-1
 125 -138 l 1,43,-1
 62 -138 l 1,24,-1
250 238 m 1,44,-1
 250 300 l 1,45,-1
 188 300 l 1,46,-1
 188 362 l 1,47,-1
 250 362 l 1,48,-1
 250 425 l 1,49,-1
 312 425 l 1,50,-1
 375 425 l 1,51,-1
 438 425 l 1,52,-1
 500 425 l 1,53,-1
 562 425 l 1,54,-1
 562 362 l 1,55,-1
 625 362 l 1,56,-1
 625 300 l 1,57,-1
 562 300 l 1,58,-1
 562 238 l 1,59,-1
 500 238 l 1,60,-1
 438 238 l 1,61,-1
 375 238 l 1,62,-1
 312 238 l 1,63,-1
 250 238 l 1,44,-1
62 362 m 1,64,-1
 62 425 l 1,65,-1
 62 488 l 1,66,-1
 62 550 l 1,67,-1
 62 612 l 1,68,-1
 62 675 l 1,69,-1
 62 738 l 1,70,-1
 125 738 l 1,71,-1
 125 675 l 1,72,-1
 188 675 l 1,73,-1
 188 612 l 1,74,-1
 250 612 l 1,75,-1
 250 550 l 1,76,-1
 250 488 l 1,77,-1
 250 425 l 1,78,-1
 188 425 l 1,79,-1
 188 362 l 1,80,-1
 125 362 l 1,81,-1
 62 362 l 1,64,-1
250 612 m 1,82,-1
 250 675 l 1,83,-1
 188 675 l 1,84,-1
 188 738 l 1,85,-1
 125 738 l 1,86,-1
 125 800 l 1,87,-1
 188 800 l 1,88,-1
 250 800 l 1,89,-1
 312 800 l 1,90,-1
 375 800 l 1,91,-1
 438 800 l 1,92,-1
 500 800 l 1,93,-1
 562 800 l 1,94,-1
 625 800 l 1,95,-1
 688 800 l 1,96,-1
 688 738 l 1,97,-1
 625 738 l 1,98,-1
 625 675 l 1,99,-1
 562 675 l 1,100,-1
 562 612 l 1,101,-1
 500 612 l 1,102,-1
 438 612 l 1,103,-1
 375 612 l 1,104,-1
 312 612 l 1,105,-1
 250 612 l 1,82,-1
EndSplineSet
EndChar

StartChar: char56
Encoding: 70 70 23
Width: 875
Flags: W
LayerCount: 2
Fore
SplineSet
62 -138 m 1,0,-1
 62 -75 l 1,1,-1
 62 -12 l 1,2,-1
 62 50 l 1,3,-1
 62 112 l 1,4,-1
 62 175 l 1,5,-1
 62 238 l 1,6,-1
 62 300 l 1,7,-1
 125 300 l 1,8,-1
 188 300 l 1,9,-1
 188 238 l 1,10,-1
 250 238 l 1,11,-1
 250 175 l 1,12,-1
 250 112 l 1,13,-1
 250 50 l 1,14,-1
 250 -12 l 1,15,-1
 188 -12 l 1,16,-1
 188 -75 l 1,17,-1
 125 -75 l 1,18,-1
 125 -138 l 1,19,-1
 62 -138 l 1,0,-1
250 238 m 1,20,-1
 250 300 l 1,21,-1
 188 300 l 1,22,-1
 188 362 l 1,23,-1
 250 362 l 1,24,-1
 250 425 l 1,25,-1
 312 425 l 1,26,-1
 375 425 l 1,27,-1
 438 425 l 1,28,-1
 500 425 l 1,29,-1
 562 425 l 1,30,-1
 562 362 l 1,31,-1
 625 362 l 1,32,-1
 625 300 l 1,33,-1
 562 300 l 1,34,-1
 562 238 l 1,35,-1
 500 238 l 1,36,-1
 438 238 l 1,37,-1
 375 238 l 1,38,-1
 312 238 l 1,39,-1
 250 238 l 1,20,-1
62 362 m 1,40,-1
 62 425 l 1,41,-1
 62 488 l 1,42,-1
 62 550 l 1,43,-1
 62 612 l 1,44,-1
 62 675 l 1,45,-1
 62 738 l 1,46,-1
 125 738 l 1,47,-1
 125 675 l 1,48,-1
 188 675 l 1,49,-1
 188 612 l 1,50,-1
 250 612 l 1,51,-1
 250 550 l 1,52,-1
 250 488 l 1,53,-1
 250 425 l 1,54,-1
 188 425 l 1,55,-1
 188 362 l 1,56,-1
 125 362 l 1,57,-1
 62 362 l 1,40,-1
250 612 m 1,58,-1
 250 675 l 1,59,-1
 188 675 l 1,60,-1
 188 738 l 1,61,-1
 125 738 l 1,62,-1
 125 800 l 1,63,-1
 188 800 l 1,64,-1
 250 800 l 1,65,-1
 312 800 l 1,66,-1
 375 800 l 1,67,-1
 438 800 l 1,68,-1
 500 800 l 1,69,-1
 562 800 l 1,70,-1
 625 800 l 1,71,-1
 688 800 l 1,72,-1
 688 738 l 1,73,-1
 625 738 l 1,74,-1
 625 675 l 1,75,-1
 562 675 l 1,76,-1
 562 612 l 1,77,-1
 500 612 l 1,78,-1
 438 612 l 1,79,-1
 375 612 l 1,80,-1
 312 612 l 1,81,-1
 250 612 l 1,58,-1
EndSplineSet
EndChar

StartChar: char56
Encoding: 71 71 24
Width: 875
Flags: W
LayerCount: 2
Fore
SplineSet
125 -200 m 1,0,-1
 125 -138 l 1,1,-1
 188 -138 l 1,2,-1
 188 -75 l 1,3,-1
 250 -75 l 1,4,-1
 250 -12 l 1,5,-1
 312 -12 l 1,6,-1
 375 -12 l 1,7,-1
 438 -12 l 1,8,-1
 500 -12 l 1,9,-1
 562 -12 l 1,10,-1
 562 -75 l 1,11,-1
 625 -75 l 1,12,-1
 625 -138 l 1,13,-1
 688 -138 l 1,14,-1
 688 -200 l 1,15,-1
 625 -200 l 1,16,-1
 562 -200 l 1,17,-1
 500 -200 l 1,18,-1
 438 -200 l 1,19,-1
 375 -200 l 1,20,-1
 312 -200 l 1,21,-1
 250 -200 l 1,22,-1
 188 -200 l 1,23,-1
 125 -200 l 1,0,-1
62 -138 m 1,24,-1
 62 -75 l 1,25,-1
 62 -12 l 1,26,-1
 62 50 l 1,27,-1
 62 112 l 1,28,-1
 62 175 l 1,29,-1
 62 238 l 1,30,-1
 62 300 l 1,31,-1
 125 300 l 1,32,-1
 188 300 l 1,33,-1
 188 238 l 1,34,-1
 250 238 l 1,35,-1
 250 175 l 1,36,-1
 250 112 l 1,37,-1
 250 50 l 1,38,-1
 250 -12 l 1,39,-1
 188 -12 l 1,40,-1
 188 -75 l 1,41,-1
 125 -75 l 1,42,-1
 125 -138 l 1,43,-1
 62 -138 l 1,24,-1
688 -138 m 1,44,-1
 688 -75 l 1,45,-1
 625 -75 l 1,46,-1
 625 -12 l 1,47,-1
 562 -12 l 1,48,-1
 562 50 l 1,49,-1
 562 112 l 1,50,-1
 562 175 l 1,51,-1
 562 238 l 1,52,-1
 625 238 l 1,53,-1
 625 300 l 1,54,-1
 688 300 l 1,55,-1
 750 300 l 1,56,-1
 750 238 l 1,57,-1
 750 175 l 1,58,-1
 750 112 l 1,59,-1
 750 50 l 1,60,-1
 750 -12 l 1,61,-1
 750 -75 l 1,62,-1
 750 -138 l 1,63,-1
 688 -138 l 1,44,-1
62 362 m 1,64,-1
 62 425 l 1,65,-1
 62 488 l 1,66,-1
 62 550 l 1,67,-1
 62 612 l 1,68,-1
 62 675 l 1,69,-1
 62 738 l 1,70,-1
 125 738 l 1,71,-1
 125 675 l 1,72,-1
 188 675 l 1,73,-1
 188 612 l 1,74,-1
 250 612 l 1,75,-1
 250 550 l 1,76,-1
 250 488 l 1,77,-1
 250 425 l 1,78,-1
 188 425 l 1,79,-1
 188 362 l 1,80,-1
 125 362 l 1,81,-1
 62 362 l 1,64,-1
250 612 m 1,82,-1
 250 675 l 1,83,-1
 188 675 l 1,84,-1
 188 738 l 1,85,-1
 125 738 l 1,86,-1
 125 800 l 1,87,-1
 188 800 l 1,88,-1
 250 800 l 1,89,-1
 312 800 l 1,90,-1
 375 800 l 1,91,-1
 438 800 l 1,92,-1
 500 800 l 1,93,-1
 562 800 l 1,94,-1
 625 800 l 1,95,-1
 688 800 l 1,96,-1
 688 738 l 1,97,-1
 625 738 l 1,98,-1
 625 675 l 1,99,-1
 562 675 l 1,100,-1
 562 612 l 1,101,-1
 500 612 l 1,102,-1
 438 612 l 1,103,-1
 375 612 l 1,104,-1
 312 612 l 1,105,-1
 250 612 l 1,82,-1
EndSplineSet
EndChar

StartChar: char56
Encoding: 72 72 25
Width: 875
Flags: W
LayerCount: 2
Fore
SplineSet
62 -138 m 1,0,-1
 62 -75 l 1,1,-1
 62 -12 l 1,2,-1
 62 50 l 1,3,-1
 62 112 l 1,4,-1
 62 175 l 1,5,-1
 62 238 l 1,6,-1
 62 300 l 1,7,-1
 125 300 l 1,8,-1
 188 300 l 1,9,-1
 188 238 l 1,10,-1
 250 238 l 1,11,-1
 250 175 l 1,12,-1
 250 112 l 1,13,-1
 250 50 l 1,14,-1
 250 -12 l 1,15,-1
 188 -12 l 1,16,-1
 188 -75 l 1,17,-1
 125 -75 l 1,18,-1
 125 -138 l 1,19,-1
 62 -138 l 1,0,-1
688 -138 m 1,20,-1
 688 -75 l 1,21,-1
 625 -75 l 1,22,-1
 625 -12 l 1,23,-1
 562 -12 l 1,24,-1
 562 50 l 1,25,-1
 562 112 l 1,26,-1
 562 175 l 1,27,-1
 562 238 l 1,28,-1
 625 238 l 1,29,-1
 625 300 l 1,30,-1
 688 300 l 1,31,-1
 750 300 l 1,32,-1
 750 238 l 1,33,-1
 750 175 l 1,34,-1
 750 112 l 1,35,-1
 750 50 l 1,36,-1
 750 -12 l 1,37,-1
 750 -75 l 1,38,-1
 750 -138 l 1,39,-1
 688 -138 l 1,20,-1
250 238 m 1,40,-1
 250 300 l 1,41,-1
 188 300 l 1,42,-1
 188 362 l 1,43,-1
 250 362 l 1,44,-1
 250 425 l 1,45,-1
 312 425 l 1,46,-1
 375 425 l 1,47,-1
 438 425 l 1,48,-1
 500 425 l 1,49,-1
 562 425 l 1,50,-1
 562 362 l 1,51,-1
 625 362 l 1,52,-1
 625 300 l 1,53,-1
 562 300 l 1,54,-1
 562 238 l 1,55,-1
 500 238 l 1,56,-1
 438 238 l 1,57,-1
 375 238 l 1,58,-1
 312 238 l 1,59,-1
 250 238 l 1,40,-1
62 362 m 1,60,-1
 62 425 l 1,61,-1
 62 488 l 1,62,-1
 62 550 l 1,63,-1
 62 612 l 1,64,-1
 62 675 l 1,65,-1
 62 738 l 1,66,-1
 125 738 l 1,67,-1
 125 675 l 1,68,-1
 188 675 l 1,69,-1
 188 612 l 1,70,-1
 250 612 l 1,71,-1
 250 550 l 1,72,-1
 250 488 l 1,73,-1
 250 425 l 1,74,-1
 188 425 l 1,75,-1
 188 362 l 1,76,-1
 125 362 l 1,77,-1
 62 362 l 1,60,-1
625 362 m 1,78,-1
 625 425 l 1,79,-1
 562 425 l 1,80,-1
 562 488 l 1,81,-1
 562 550 l 1,82,-1
 562 612 l 1,83,-1
 625 612 l 1,84,-1
 625 675 l 1,85,-1
 688 675 l 1,86,-1
 688 738 l 1,87,-1
 750 738 l 1,88,-1
 750 675 l 1,89,-1
 750 612 l 1,90,-1
 750 550 l 1,91,-1
 750 488 l 1,92,-1
 750 425 l 1,93,-1
 750 362 l 1,94,-1
 688 362 l 1,95,-1
 625 362 l 1,78,-1
EndSplineSet
EndChar

StartChar: char56
Encoding: 73 73 26
Width: 875
Flags: W
LayerCount: 2
Fore
SplineSet
125 -200 m 1,0,-1
 125 -138 l 1,1,-1
 188 -138 l 1,2,-1
 188 -75 l 1,3,-1
 250 -75 l 1,4,-1
 250 -12 l 1,5,-1
 312 -12 l 1,6,-1
 375 -12 l 1,7,-1
 438 -12 l 1,8,-1
 500 -12 l 1,9,-1
 562 -12 l 1,10,-1
 562 -75 l 1,11,-1
 625 -75 l 1,12,-1
 625 -138 l 1,13,-1
 688 -138 l 1,14,-1
 688 -200 l 1,15,-1
 625 -200 l 1,16,-1
 562 -200 l 1,17,-1
 500 -200 l 1,18,-1
 438 -200 l 1,19,-1
 375 -200 l 1,20,-1
 312 -200 l 1,21,-1
 250 -200 l 1,22,-1
 188 -200 l 1,23,-1
 125 -200 l 1,0,-1
312 50 m 1,24,-1
 312 112 l 1,25,-1
 312 175 l 1,26,-1
 312 238 l 1,27,-1
 375 238 l 1,28,-1
 438 238 l 1,29,-1
 500 238 l 1,30,-1
 500 175 l 1,31,-1
 500 112 l 1,32,-1
 500 50 l 1,33,-1
 438 50 l 1,34,-1
 375 50 l 1,35,-1
 312 50 l 1,24,-1
312 425 m 1,36,-1
 312 488 l 1,37,-1
 312 550 l 1,38,-1
 375 550 l 1,39,-1
 438 550 l 1,40,-1
 500 550 l 1,41,-1
 500 488 l 1,42,-1
 500 425 l 1,43,-1
 438 425 l 1,44,-1
 375 425 l 1,45,-1
 312 425 l 1,36,-1
250 612 m 1,46,-1
 250 675 l 1,47,-1
 188 675 l 1,48,-1
 188 738 l 1,49,-1
 125 738 l 1,50,-1
 125 800 l 1,51,-1
 188 800 l 1,52,-1
 250 800 l 1,53,-1
 312 800 l 1,54,-1
 375 800 l 1,55,-1
 438 800 l 1,56,-1
 500 800 l 1,57,-1
 562 800 l 1,58,-1
 625 800 l 1,59,-1
 688 800 l 1,60,-1
 688 738 l 1,61,-1
 625 738 l 1,62,-1
 625 675 l 1,63,-1
 562 675 l 1,64,-1
 562 612 l 1,65,-1
 500 612 l 1,66,-1
 438 612 l 1,67,-1
 375 612 l 1,68,-1
 312 612 l 1,69,-1
 250 612 l 1,46,-1
EndSplineSet
EndChar

StartChar: char56
Encoding: 74 74 27
Width: 875
Flags: W
LayerCount: 2
Fore
SplineSet
125 -200 m 1,0,-1
 125 -138 l 1,1,-1
 188 -138 l 1,2,-1
 188 -75 l 1,3,-1
 250 -75 l 1,4,-1
 250 -12 l 1,5,-1
 312 -12 l 1,6,-1
 375 -12 l 1,7,-1
 438 -12 l 1,8,-1
 500 -12 l 1,9,-1
 562 -12 l 1,10,-1
 562 -75 l 1,11,-1
 625 -75 l 1,12,-1
 625 -138 l 1,13,-1
 688 -138 l 1,14,-1
 688 -200 l 1,15,-1
 625 -200 l 1,16,-1
 562 -200 l 1,17,-1
 500 -200 l 1,18,-1
 438 -200 l 1,19,-1
 375 -200 l 1,20,-1
 312 -200 l 1,21,-1
 250 -200 l 1,22,-1
 188 -200 l 1,23,-1
 125 -200 l 1,0,-1
62 -138 m 1,24,-1
 62 -75 l 1,25,-1
 62 -12 l 1,26,-1
 62 50 l 1,27,-1
 62 112 l 1,28,-1
 62 175 l 1,29,-1
 62 238 l 1,30,-1
 62 300 l 1,31,-1
 125 300 l 1,32,-1
 188 300 l 1,33,-1
 188 238 l 1,34,-1
 250 238 l 1,35,-1
 250 175 l 1,36,-1
 250 112 l 1,37,-1
 250 50 l 1,38,-1
 250 -12 l 1,39,-1
 188 -12 l 1,40,-1
 188 -75 l 1,41,-1
 125 -75 l 1,42,-1
 125 -138 l 1,43,-1
 62 -138 l 1,24,-1
688 -138 m 1,44,-1
 688 -75 l 1,45,-1
 625 -75 l 1,46,-1
 625 -12 l 1,47,-1
 562 -12 l 1,48,-1
 562 50 l 1,49,-1
 562 112 l 1,50,-1
 562 175 l 1,51,-1
 562 238 l 1,52,-1
 625 238 l 1,53,-1
 625 300 l 1,54,-1
 688 300 l 1,55,-1
 750 300 l 1,56,-1
 750 238 l 1,57,-1
 750 175 l 1,58,-1
 750 112 l 1,59,-1
 750 50 l 1,60,-1
 750 -12 l 1,61,-1
 750 -75 l 1,62,-1
 750 -138 l 1,63,-1
 688 -138 l 1,44,-1
625 362 m 1,64,-1
 625 425 l 1,65,-1
 562 425 l 1,66,-1
 562 488 l 1,67,-1
 562 550 l 1,68,-1
 562 612 l 1,69,-1
 625 612 l 1,70,-1
 625 675 l 1,71,-1
 688 675 l 1,72,-1
 688 738 l 1,73,-1
 750 738 l 1,74,-1
 750 675 l 1,75,-1
 750 612 l 1,76,-1
 750 550 l 1,77,-1
 750 488 l 1,78,-1
 750 425 l 1,79,-1
 750 362 l 1,80,-1
 688 362 l 1,81,-1
 625 362 l 1,64,-1
EndSplineSet
EndChar

StartChar: char56
Encoding: 75 75 28
Width: 875
Flags: W
LayerCount: 2
Fore
SplineSet
62 -138 m 1,0,-1
 62 -75 l 1,1,-1
 62 -12 l 1,2,-1
 62 50 l 1,3,-1
 62 112 l 1,4,-1
 62 175 l 1,5,-1
 62 238 l 1,6,-1
 62 300 l 1,7,-1
 125 300 l 1,8,-1
 188 300 l 1,9,-1
 188 238 l 1,10,-1
 250 238 l 1,11,-1
 250 175 l 1,12,-1
 250 112 l 1,13,-1
 250 50 l 1,14,-1
 250 -12 l 1,15,-1
 188 -12 l 1,16,-1
 188 -75 l 1,17,-1
 125 -75 l 1,18,-1
 125 -138 l 1,19,-1
 62 -138 l 1,0,-1
688 -138 m 1,20,-1
 688 -75 l 1,21,-1
 625 -75 l 1,22,-1
 625 -12 l 1,23,-1
 562 -12 l 1,24,-1
 562 50 l 1,25,-1
 562 112 l 1,26,-1
 562 175 l 1,27,-1
 562 238 l 1,28,-1
 625 238 l 1,29,-1
 625 300 l 1,30,-1
 688 300 l 1,31,-1
 750 300 l 1,32,-1
 750 238 l 1,33,-1
 750 175 l 1,34,-1
 750 112 l 1,35,-1
 750 50 l 1,36,-1
 750 -12 l 1,37,-1
 750 -75 l 1,38,-1
 750 -138 l 1,39,-1
 688 -138 l 1,20,-1
250 238 m 1,40,-1
 250 300 l 1,41,-1
 188 300 l 1,42,-1
 188 362 l 1,43,-1
 250 362 l 1,44,-1
 250 425 l 1,45,-1
 312 425 l 1,46,-1
 375 425 l 1,47,-1
 438 425 l 1,48,-1
 500 425 l 1,49,-1
 562 425 l 1,50,-1
 562 362 l 1,51,-1
 625 362 l 1,52,-1
 625 300 l 1,53,-1
 562 300 l 1,54,-1
 562 238 l 1,55,-1
 500 238 l 1,56,-1
 438 238 l 1,57,-1
 375 238 l 1,58,-1
 312 238 l 1,59,-1
 250 238 l 1,40,-1
62 362 m 1,60,-1
 62 425 l 1,61,-1
 62 488 l 1,62,-1
 62 550 l 1,63,-1
 62 612 l 1,64,-1
 62 675 l 1,65,-1
 62 738 l 1,66,-1
 125 738 l 1,67,-1
 125 675 l 1,68,-1
 188 675 l 1,69,-1
 188 612 l 1,70,-1
 250 612 l 1,71,-1
 250 550 l 1,72,-1
 250 488 l 1,73,-1
 250 425 l 1,74,-1
 188 425 l 1,75,-1
 188 362 l 1,76,-1
 125 362 l 1,77,-1
 62 362 l 1,60,-1
375 488 m 1,78,-1
 375 550 l 1,79,-1
 438 550 l 1,80,-1
 438 612 l 1,81,-1
 500 612 l 1,82,-1
 500 675 l 1,83,-1
 562 675 l 1,84,-1
 625 675 l 1,85,-1
 688 675 l 1,86,-1
 750 675 l 1,87,-1
 750 612 l 1,88,-1
 688 612 l 1,89,-1
 688 550 l 1,90,-1
 625 550 l 1,91,-1
 625 488 l 1,92,-1
 562 488 l 1,93,-1
 500 488 l 1,94,-1
 438 488 l 1,95,-1
 375 488 l 1,78,-1
EndSplineSet
EndChar

StartChar: char56
Encoding: 76 76 29
Width: 875
Flags: W
LayerCount: 2
Fore
SplineSet
125 -200 m 1,0,-1
 125 -138 l 1,1,-1
 188 -138 l 1,2,-1
 188 -75 l 1,3,-1
 250 -75 l 1,4,-1
 250 -12 l 1,5,-1
 312 -12 l 1,6,-1
 375 -12 l 1,7,-1
 438 -12 l 1,8,-1
 500 -12 l 1,9,-1
 562 -12 l 1,10,-1
 562 -75 l 1,11,-1
 625 -75 l 1,12,-1
 625 -138 l 1,13,-1
 688 -138 l 1,14,-1
 688 -200 l 1,15,-1
 625 -200 l 1,16,-1
 562 -200 l 1,17,-1
 500 -200 l 1,18,-1
 438 -200 l 1,19,-1
 375 -200 l 1,20,-1
 312 -200 l 1,21,-1
 250 -200 l 1,22,-1
 188 -200 l 1,23,-1
 125 -200 l 1,0,-1
62 -138 m 1,24,-1
 62 -75 l 1,25,-1
 62 -12 l 1,26,-1
 62 50 l 1,27,-1
 62 112 l 1,28,-1
 62 175 l 1,29,-1
 62 238 l 1,30,-1
 62 300 l 1,31,-1
 125 300 l 1,32,-1
 188 300 l 1,33,-1
 188 238 l 1,34,-1
 250 238 l 1,35,-1
 250 175 l 1,36,-1
 250 112 l 1,37,-1
 250 50 l 1,38,-1
 250 -12 l 1,39,-1
 188 -12 l 1,40,-1
 188 -75 l 1,41,-1
 125 -75 l 1,42,-1
 125 -138 l 1,43,-1
 62 -138 l 1,24,-1
62 362 m 1,44,-1
 62 425 l 1,45,-1
 62 488 l 1,46,-1
 62 550 l 1,47,-1
 62 612 l 1,48,-1
 62 675 l 1,49,-1
 62 738 l 1,50,-1
 125 738 l 1,51,-1
 125 675 l 1,52,-1
 188 675 l 1,53,-1
 188 612 l 1,54,-1
 250 612 l 1,55,-1
 250 550 l 1,56,-1
 250 488 l 1,57,-1
 250 425 l 1,58,-1
 188 425 l 1,59,-1
 188 362 l 1,60,-1
 125 362 l 1,61,-1
 62 362 l 1,44,-1
EndSplineSet
EndChar

StartChar: char56
Encoding: 77 77 30
Width: 875
Flags: W
LayerCount: 2
Fore
SplineSet
62 -138 m 1,0,-1
 62 -75 l 1,1,-1
 62 -12 l 1,2,-1
 62 50 l 1,3,-1
 62 112 l 1,4,-1
 62 175 l 1,5,-1
 62 238 l 1,6,-1
 62 300 l 1,7,-1
 125 300 l 1,8,-1
 188 300 l 1,9,-1
 188 238 l 1,10,-1
 250 238 l 1,11,-1
 250 175 l 1,12,-1
 250 112 l 1,13,-1
 250 50 l 1,14,-1
 250 -12 l 1,15,-1
 188 -12 l 1,16,-1
 188 -75 l 1,17,-1
 125 -75 l 1,18,-1
 125 -138 l 1,19,-1
 62 -138 l 1,0,-1
688 -138 m 1,20,-1
 688 -75 l 1,21,-1
 625 -75 l 1,22,-1
 625 -12 l 1,23,-1
 562 -12 l 1,24,-1
 562 50 l 1,25,-1
 562 112 l 1,26,-1
 562 175 l 1,27,-1
 562 238 l 1,28,-1
 625 238 l 1,29,-1
 625 300 l 1,30,-1
 688 300 l 1,31,-1
 750 300 l 1,32,-1
 750 238 l 1,33,-1
 750 175 l 1,34,-1
 750 112 l 1,35,-1
 750 50 l 1,36,-1
 750 -12 l 1,37,-1
 750 -75 l 1,38,-1
 750 -138 l 1,39,-1
 688 -138 l 1,20,-1
312 50 m 1,40,-1
 312 112 l 1,41,-1
 312 175 l 1,42,-1
 312 238 l 1,43,-1
 375 238 l 1,44,-1
 438 238 l 1,45,-1
 500 238 l 1,46,-1
 500 175 l 1,47,-1
 500 112 l 1,48,-1
 500 50 l 1,49,-1
 438 50 l 1,50,-1
 375 50 l 1,51,-1
 312 50 l 1,40,-1
62 362 m 1,52,-1
 62 425 l 1,53,-1
 62 488 l 1,54,-1
 62 550 l 1,55,-1
 62 612 l 1,56,-1
 62 675 l 1,57,-1
 62 738 l 1,58,-1
 125 738 l 1,59,-1
 125 675 l 1,60,-1
 188 675 l 1,61,-1
 188 612 l 1,62,-1
 250 612 l 1,63,-1
 250 550 l 1,64,-1
 250 488 l 1,65,-1
 250 425 l 1,66,-1
 188 425 l 1,67,-1
 188 362 l 1,68,-1
 125 362 l 1,69,-1
 62 362 l 1,52,-1
625 362 m 1,70,-1
 625 425 l 1,71,-1
 562 425 l 1,72,-1
 562 488 l 1,73,-1
 562 550 l 1,74,-1
 562 612 l 1,75,-1
 625 612 l 1,76,-1
 625 675 l 1,77,-1
 688 675 l 1,78,-1
 688 738 l 1,79,-1
 750 738 l 1,80,-1
 750 675 l 1,81,-1
 750 612 l 1,82,-1
 750 550 l 1,83,-1
 750 488 l 1,84,-1
 750 425 l 1,85,-1
 750 362 l 1,86,-1
 688 362 l 1,87,-1
 625 362 l 1,70,-1
312 425 m 1,88,-1
 312 488 l 1,89,-1
 312 550 l 1,90,-1
 375 550 l 1,91,-1
 438 550 l 1,92,-1
 500 550 l 1,93,-1
 500 488 l 1,94,-1
 500 425 l 1,95,-1
 438 425 l 1,96,-1
 375 425 l 1,97,-1
 312 425 l 1,88,-1
250 612 m 1,98,-1
 250 675 l 1,99,-1
 188 675 l 1,100,-1
 188 738 l 1,101,-1
 125 738 l 1,102,-1
 125 800 l 1,103,-1
 188 800 l 1,104,-1
 250 800 l 1,105,-1
 312 800 l 1,106,-1
 375 800 l 1,107,-1
 438 800 l 1,108,-1
 500 800 l 1,109,-1
 562 800 l 1,110,-1
 625 800 l 1,111,-1
 688 800 l 1,112,-1
 688 738 l 1,113,-1
 625 738 l 1,114,-1
 625 675 l 1,115,-1
 562 675 l 1,116,-1
 562 612 l 1,117,-1
 500 612 l 1,118,-1
 438 612 l 1,119,-1
 375 612 l 1,120,-1
 312 612 l 1,121,-1
 250 612 l 1,98,-1
EndSplineSet
EndChar

StartChar: char56
Encoding: 78 78 31
Width: 875
Flags: W
LayerCount: 2
Fore
SplineSet
62 -138 m 1,0,-1
 62 -75 l 1,1,-1
 62 -12 l 1,2,-1
 62 50 l 1,3,-1
 62 112 l 1,4,-1
 62 175 l 1,5,-1
 62 238 l 1,6,-1
 62 300 l 1,7,-1
 125 300 l 1,8,-1
 188 300 l 1,9,-1
 188 238 l 1,10,-1
 250 238 l 1,11,-1
 250 175 l 1,12,-1
 250 112 l 1,13,-1
 250 50 l 1,14,-1
 250 -12 l 1,15,-1
 188 -12 l 1,16,-1
 188 -75 l 1,17,-1
 125 -75 l 1,18,-1
 125 -138 l 1,19,-1
 62 -138 l 1,0,-1
688 -138 m 1,20,-1
 688 -75 l 1,21,-1
 625 -75 l 1,22,-1
 625 -12 l 1,23,-1
 562 -12 l 1,24,-1
 562 50 l 1,25,-1
 562 112 l 1,26,-1
 562 175 l 1,27,-1
 562 238 l 1,28,-1
 625 238 l 1,29,-1
 625 300 l 1,30,-1
 688 300 l 1,31,-1
 750 300 l 1,32,-1
 750 238 l 1,33,-1
 750 175 l 1,34,-1
 750 112 l 1,35,-1
 750 50 l 1,36,-1
 750 -12 l 1,37,-1
 750 -75 l 1,38,-1
 750 -138 l 1,39,-1
 688 -138 l 1,20,-1
62 362 m 1,40,-1
 62 425 l 1,41,-1
 62 488 l 1,42,-1
 62 550 l 1,43,-1
 62 612 l 1,44,-1
 62 675 l 1,45,-1
 62 738 l 1,46,-1
 125 738 l 1,47,-1
 125 675 l 1,48,-1
 188 675 l 1,49,-1
 188 612 l 1,50,-1
 250 612 l 1,51,-1
 250 550 l 1,52,-1
 250 488 l 1,53,-1
 250 425 l 1,54,-1
 188 425 l 1,55,-1
 188 362 l 1,56,-1
 125 362 l 1,57,-1
 62 362 l 1,40,-1
625 362 m 1,58,-1
 625 425 l 1,59,-1
 562 425 l 1,60,-1
 562 488 l 1,61,-1
 562 550 l 1,62,-1
 562 612 l 1,63,-1
 625 612 l 1,64,-1
 625 675 l 1,65,-1
 688 675 l 1,66,-1
 688 738 l 1,67,-1
 750 738 l 1,68,-1
 750 675 l 1,69,-1
 750 612 l 1,70,-1
 750 550 l 1,71,-1
 750 488 l 1,72,-1
 750 425 l 1,73,-1
 750 362 l 1,74,-1
 688 362 l 1,75,-1
 625 362 l 1,58,-1
250 612 m 1,76,-1
 250 675 l 1,77,-1
 188 675 l 1,78,-1
 188 738 l 1,79,-1
 125 738 l 1,80,-1
 125 800 l 1,81,-1
 188 800 l 1,82,-1
 250 800 l 1,83,-1
 312 800 l 1,84,-1
 375 800 l 1,85,-1
 438 800 l 1,86,-1
 500 800 l 1,87,-1
 562 800 l 1,88,-1
 625 800 l 1,89,-1
 688 800 l 1,90,-1
 688 738 l 1,91,-1
 625 738 l 1,92,-1
 625 675 l 1,93,-1
 562 675 l 1,94,-1
 562 612 l 1,95,-1
 500 612 l 1,96,-1
 438 612 l 1,97,-1
 375 612 l 1,98,-1
 312 612 l 1,99,-1
 250 612 l 1,76,-1
EndSplineSet
EndChar

StartChar: char56
Encoding: 79 79 32
Width: 875
Flags: W
LayerCount: 2
Fore
SplineSet
125 -200 m 1,0,-1
 125 -138 l 1,1,-1
 188 -138 l 1,2,-1
 188 -75 l 1,3,-1
 250 -75 l 1,4,-1
 250 -12 l 1,5,-1
 312 -12 l 1,6,-1
 375 -12 l 1,7,-1
 438 -12 l 1,8,-1
 500 -12 l 1,9,-1
 562 -12 l 1,10,-1
 562 -75 l 1,11,-1
 625 -75 l 1,12,-1
 625 -138 l 1,13,-1
 688 -138 l 1,14,-1
 688 -200 l 1,15,-1
 625 -200 l 1,16,-1
 562 -200 l 1,17,-1
 500 -200 l 1,18,-1
 438 -200 l 1,19,-1
 375 -200 l 1,20,-1
 312 -200 l 1,21,-1
 250 -200 l 1,22,-1
 188 -200 l 1,23,-1
 125 -200 l 1,0,-1
62 -138 m 1,24,-1
 62 -75 l 1,25,-1
 62 -12 l 1,26,-1
 62 50 l 1,27,-1
 62 112 l 1,28,-1
 62 175 l 1,29,-1
 62 238 l 1,30,-1
 62 300 l 1,31,-1
 125 300 l 1,32,-1
 188 300 l 1,33,-1
 188 238 l 1,34,-1
 250 238 l 1,35,-1
 250 175 l 1,36,-1
 250 112 l 1,37,-1
 250 50 l 1,38,-1
 250 -12 l 1,39,-1
 188 -12 l 1,40,-1
 188 -75 l 1,41,-1
 125 -75 l 1,42,-1
 125 -138 l 1,43,-1
 62 -138 l 1,24,-1
688 -138 m 1,44,-1
 688 -75 l 1,45,-1
 625 -75 l 1,46,-1
 625 -12 l 1,47,-1
 562 -12 l 1,48,-1
 562 50 l 1,49,-1
 562 112 l 1,50,-1
 562 175 l 1,51,-1
 562 238 l 1,52,-1
 625 238 l 1,53,-1
 625 300 l 1,54,-1
 688 300 l 1,55,-1
 750 300 l 1,56,-1
 750 238 l 1,57,-1
 750 175 l 1,58,-1
 750 112 l 1,59,-1
 750 50 l 1,60,-1
 750 -12 l 1,61,-1
 750 -75 l 1,62,-1
 750 -138 l 1,63,-1
 688 -138 l 1,44,-1
62 362 m 1,64,-1
 62 425 l 1,65,-1
 62 488 l 1,66,-1
 62 550 l 1,67,-1
 62 612 l 1,68,-1
 62 675 l 1,69,-1
 62 738 l 1,70,-1
 125 738 l 1,71,-1
 125 675 l 1,72,-1
 188 675 l 1,73,-1
 188 612 l 1,74,-1
 250 612 l 1,75,-1
 250 550 l 1,76,-1
 250 488 l 1,77,-1
 250 425 l 1,78,-1
 188 425 l 1,79,-1
 188 362 l 1,80,-1
 125 362 l 1,81,-1
 62 362 l 1,64,-1
625 362 m 1,82,-1
 625 425 l 1,83,-1
 562 425 l 1,84,-1
 562 488 l 1,85,-1
 562 550 l 1,86,-1
 562 612 l 1,87,-1
 625 612 l 1,88,-1
 625 675 l 1,89,-1
 688 675 l 1,90,-1
 688 738 l 1,91,-1
 750 738 l 1,92,-1
 750 675 l 1,93,-1
 750 612 l 1,94,-1
 750 550 l 1,95,-1
 750 488 l 1,96,-1
 750 425 l 1,97,-1
 750 362 l 1,98,-1
 688 362 l 1,99,-1
 625 362 l 1,82,-1
250 612 m 1,100,-1
 250 675 l 1,101,-1
 188 675 l 1,102,-1
 188 738 l 1,103,-1
 125 738 l 1,104,-1
 125 800 l 1,105,-1
 188 800 l 1,106,-1
 250 800 l 1,107,-1
 312 800 l 1,108,-1
 375 800 l 1,109,-1
 438 800 l 1,110,-1
 500 800 l 1,111,-1
 562 800 l 1,112,-1
 625 800 l 1,113,-1
 688 800 l 1,114,-1
 688 738 l 1,115,-1
 625 738 l 1,116,-1
 625 675 l 1,117,-1
 562 675 l 1,118,-1
 562 612 l 1,119,-1
 500 612 l 1,120,-1
 438 612 l 1,121,-1
 375 612 l 1,122,-1
 312 612 l 1,123,-1
 250 612 l 1,100,-1
EndSplineSet
EndChar

StartChar: char56
Encoding: 80 80 33
Width: 875
Flags: W
LayerCount: 2
Fore
SplineSet
62 -138 m 1,0,-1
 62 -75 l 1,1,-1
 62 -12 l 1,2,-1
 62 50 l 1,3,-1
 62 112 l 1,4,-1
 62 175 l 1,5,-1
 62 238 l 1,6,-1
 62 300 l 1,7,-1
 125 300 l 1,8,-1
 188 300 l 1,9,-1
 188 238 l 1,10,-1
 250 238 l 1,11,-1
 250 175 l 1,12,-1
 250 112 l 1,13,-1
 250 50 l 1,14,-1
 250 -12 l 1,15,-1
 188 -12 l 1,16,-1
 188 -75 l 1,17,-1
 125 -75 l 1,18,-1
 125 -138 l 1,19,-1
 62 -138 l 1,0,-1
250 238 m 1,20,-1
 250 300 l 1,21,-1
 188 300 l 1,22,-1
 188 362 l 1,23,-1
 250 362 l 1,24,-1
 250 425 l 1,25,-1
 312 425 l 1,26,-1
 375 425 l 1,27,-1
 438 425 l 1,28,-1
 500 425 l 1,29,-1
 562 425 l 1,30,-1
 562 362 l 1,31,-1
 625 362 l 1,32,-1
 625 300 l 1,33,-1
 562 300 l 1,34,-1
 562 238 l 1,35,-1
 500 238 l 1,36,-1
 438 238 l 1,37,-1
 375 238 l 1,38,-1
 312 238 l 1,39,-1
 250 238 l 1,20,-1
62 362 m 1,40,-1
 62 425 l 1,41,-1
 62 488 l 1,42,-1
 62 550 l 1,43,-1
 62 612 l 1,44,-1
 62 675 l 1,45,-1
 62 738 l 1,46,-1
 125 738 l 1,47,-1
 125 675 l 1,48,-1
 188 675 l 1,49,-1
 188 612 l 1,50,-1
 250 612 l 1,51,-1
 250 550 l 1,52,-1
 250 488 l 1,53,-1
 250 425 l 1,54,-1
 188 425 l 1,55,-1
 188 362 l 1,56,-1
 125 362 l 1,57,-1
 62 362 l 1,40,-1
625 362 m 1,58,-1
 625 425 l 1,59,-1
 562 425 l 1,60,-1
 562 488 l 1,61,-1
 562 550 l 1,62,-1
 562 612 l 1,63,-1
 625 612 l 1,64,-1
 625 675 l 1,65,-1
 688 675 l 1,66,-1
 688 738 l 1,67,-1
 750 738 l 1,68,-1
 750 675 l 1,69,-1
 750 612 l 1,70,-1
 750 550 l 1,71,-1
 750 488 l 1,72,-1
 750 425 l 1,73,-1
 750 362 l 1,74,-1
 688 362 l 1,75,-1
 625 362 l 1,58,-1
250 612 m 1,76,-1
 250 675 l 1,77,-1
 188 675 l 1,78,-1
 188 738 l 1,79,-1
 125 738 l 1,80,-1
 125 800 l 1,81,-1
 188 800 l 1,82,-1
 250 800 l 1,83,-1
 312 800 l 1,84,-1
 375 800 l 1,85,-1
 438 800 l 1,86,-1
 500 800 l 1,87,-1
 562 800 l 1,88,-1
 625 800 l 1,89,-1
 688 800 l 1,90,-1
 688 738 l 1,91,-1
 625 738 l 1,92,-1
 625 675 l 1,93,-1
 562 675 l 1,94,-1
 562 612 l 1,95,-1
 500 612 l 1,96,-1
 438 612 l 1,97,-1
 375 612 l 1,98,-1
 312 612 l 1,99,-1
 250 612 l 1,76,-1
EndSplineSet
EndChar

StartChar: char56
Encoding: 81 81 34
Width: 875
Flags: W
LayerCount: 2
Fore
SplineSet
125 -200 m 1,0,-1
 125 -138 l 1,1,-1
 188 -138 l 1,2,-1
 188 -75 l 1,3,-1
 250 -75 l 1,4,-1
 250 -12 l 1,5,-1
 312 -12 l 1,6,-1
 375 -12 l 1,7,-1
 438 -12 l 1,8,-1
 500 -12 l 1,9,-1
 562 -12 l 1,10,-1
 562 -75 l 1,11,-1
 625 -75 l 1,12,-1
 625 -138 l 1,13,-1
 688 -138 l 1,14,-1
 688 -200 l 1,15,-1
 625 -200 l 1,16,-1
 562 -200 l 1,17,-1
 500 -200 l 1,18,-1
 438 -200 l 1,19,-1
 375 -200 l 1,20,-1
 312 -200 l 1,21,-1
 250 -200 l 1,22,-1
 188 -200 l 1,23,-1
 125 -200 l 1,0,-1
62 -138 m 1,24,-1
 62 -75 l 1,25,-1
 62 -12 l 1,26,-1
 62 50 l 1,27,-1
 62 112 l 1,28,-1
 62 175 l 1,29,-1
 62 238 l 1,30,-1
 62 300 l 1,31,-1
 125 300 l 1,32,-1
 188 300 l 1,33,-1
 188 238 l 1,34,-1
 250 238 l 1,35,-1
 250 175 l 1,36,-1
 250 112 l 1,37,-1
 250 50 l 1,38,-1
 250 -12 l 1,39,-1
 188 -12 l 1,40,-1
 188 -75 l 1,41,-1
 125 -75 l 1,42,-1
 125 -138 l 1,43,-1
 62 -138 l 1,24,-1
688 -138 m 1,44,-1
 688 -75 l 1,45,-1
 625 -75 l 1,46,-1
 625 -12 l 1,47,-1
 562 -12 l 1,48,-1
 562 50 l 1,49,-1
 562 112 l 1,50,-1
 562 175 l 1,51,-1
 562 238 l 1,52,-1
 625 238 l 1,53,-1
 625 300 l 1,54,-1
 688 300 l 1,55,-1
 750 300 l 1,56,-1
 750 238 l 1,57,-1
 750 175 l 1,58,-1
 750 112 l 1,59,-1
 750 50 l 1,60,-1
 750 -12 l 1,61,-1
 750 -75 l 1,62,-1
 750 -138 l 1,63,-1
 688 -138 l 1,44,-1
312 50 m 1,64,-1
 312 112 l 1,65,-1
 312 175 l 1,66,-1
 312 238 l 1,67,-1
 375 238 l 1,68,-1
 438 238 l 1,69,-1
 500 238 l 1,70,-1
 500 175 l 1,71,-1
 500 112 l 1,72,-1
 500 50 l 1,73,-1
 438 50 l 1,74,-1
 375 50 l 1,75,-1
 312 50 l 1,64,-1
62 362 m 1,76,-1
 62 425 l 1,77,-1
 62 488 l 1,78,-1
 62 550 l 1,79,-1
 62 612 l 1,80,-1
 62 675 l 1,81,-1
 62 738 l 1,82,-1
 125 738 l 1,83,-1
 125 675 l 1,84,-1
 188 675 l 1,85,-1
 188 612 l 1,86,-1
 250 612 l 1,87,-1
 250 550 l 1,88,-1
 250 488 l 1,89,-1
 250 425 l 1,90,-1
 188 425 l 1,91,-1
 188 362 l 1,92,-1
 125 362 l 1,93,-1
 62 362 l 1,76,-1
625 362 m 1,94,-1
 625 425 l 1,95,-1
 562 425 l 1,96,-1
 562 488 l 1,97,-1
 562 550 l 1,98,-1
 562 612 l 1,99,-1
 625 612 l 1,100,-1
 625 675 l 1,101,-1
 688 675 l 1,102,-1
 688 738 l 1,103,-1
 750 738 l 1,104,-1
 750 675 l 1,105,-1
 750 612 l 1,106,-1
 750 550 l 1,107,-1
 750 488 l 1,108,-1
 750 425 l 1,109,-1
 750 362 l 1,110,-1
 688 362 l 1,111,-1
 625 362 l 1,94,-1
250 612 m 1,112,-1
 250 675 l 1,113,-1
 188 675 l 1,114,-1
 188 738 l 1,115,-1
 125 738 l 1,116,-1
 125 800 l 1,117,-1
 188 800 l 1,118,-1
 250 800 l 1,119,-1
 312 800 l 1,120,-1
 375 800 l 1,121,-1
 438 800 l 1,122,-1
 500 800 l 1,123,-1
 562 800 l 1,124,-1
 625 800 l 1,125,-1
 688 800 l 1,126,-1
 688 738 l 1,127,-1
 625 738 l 1,128,-1
 625 675 l 1,129,-1
 562 675 l 1,130,-1
 562 612 l 1,131,-1
 500 612 l 1,132,-1
 438 612 l 1,133,-1
 375 612 l 1,134,-1
 312 612 l 1,135,-1
 250 612 l 1,112,-1
EndSplineSet
EndChar

StartChar: char56
Encoding: 82 82 35
Width: 875
Flags: W
LayerCount: 2
Fore
SplineSet
62 -138 m 1,0,-1
 62 -75 l 1,1,-1
 62 -12 l 1,2,-1
 62 50 l 1,3,-1
 62 112 l 1,4,-1
 62 175 l 1,5,-1
 62 238 l 1,6,-1
 62 300 l 1,7,-1
 125 300 l 1,8,-1
 188 300 l 1,9,-1
 188 238 l 1,10,-1
 250 238 l 1,11,-1
 250 175 l 1,12,-1
 250 112 l 1,13,-1
 250 50 l 1,14,-1
 250 -12 l 1,15,-1
 188 -12 l 1,16,-1
 188 -75 l 1,17,-1
 125 -75 l 1,18,-1
 125 -138 l 1,19,-1
 62 -138 l 1,0,-1
62 362 m 1,20,-1
 62 425 l 1,21,-1
 62 488 l 1,22,-1
 62 550 l 1,23,-1
 62 612 l 1,24,-1
 62 675 l 1,25,-1
 62 738 l 1,26,-1
 125 738 l 1,27,-1
 125 675 l 1,28,-1
 188 675 l 1,29,-1
 188 612 l 1,30,-1
 250 612 l 1,31,-1
 250 550 l 1,32,-1
 250 488 l 1,33,-1
 250 425 l 1,34,-1
 188 425 l 1,35,-1
 188 362 l 1,36,-1
 125 362 l 1,37,-1
 62 362 l 1,20,-1
625 362 m 1,38,-1
 625 425 l 1,39,-1
 562 425 l 1,40,-1
 562 488 l 1,41,-1
 562 550 l 1,42,-1
 562 612 l 1,43,-1
 625 612 l 1,44,-1
 625 675 l 1,45,-1
 688 675 l 1,46,-1
 688 738 l 1,47,-1
 750 738 l 1,48,-1
 750 675 l 1,49,-1
 750 612 l 1,50,-1
 750 550 l 1,51,-1
 750 488 l 1,52,-1
 750 425 l 1,53,-1
 750 362 l 1,54,-1
 688 362 l 1,55,-1
 625 362 l 1,38,-1
250 612 m 1,56,-1
 250 675 l 1,57,-1
 188 675 l 1,58,-1
 188 738 l 1,59,-1
 125 738 l 1,60,-1
 125 800 l 1,61,-1
 188 800 l 1,62,-1
 250 800 l 1,63,-1
 312 800 l 1,64,-1
 375 800 l 1,65,-1
 438 800 l 1,66,-1
 500 800 l 1,67,-1
 562 800 l 1,68,-1
 625 800 l 1,69,-1
 688 800 l 1,70,-1
 688 738 l 1,71,-1
 625 738 l 1,72,-1
 625 675 l 1,73,-1
 562 675 l 1,74,-1
 562 612 l 1,75,-1
 500 612 l 1,76,-1
 438 612 l 1,77,-1
 375 612 l 1,78,-1
 312 612 l 1,79,-1
 250 612 l 1,56,-1
EndSplineSet
EndChar

StartChar: char56
Encoding: 83 83 36
Width: 875
Flags: W
LayerCount: 2
Fore
SplineSet
125 -200 m 1,0,-1
 125 -138 l 1,1,-1
 188 -138 l 1,2,-1
 188 -75 l 1,3,-1
 250 -75 l 1,4,-1
 250 -12 l 1,5,-1
 312 -12 l 1,6,-1
 375 -12 l 1,7,-1
 438 -12 l 1,8,-1
 500 -12 l 1,9,-1
 562 -12 l 1,10,-1
 562 -75 l 1,11,-1
 625 -75 l 1,12,-1
 625 -138 l 1,13,-1
 688 -138 l 1,14,-1
 688 -200 l 1,15,-1
 625 -200 l 1,16,-1
 562 -200 l 1,17,-1
 500 -200 l 1,18,-1
 438 -200 l 1,19,-1
 375 -200 l 1,20,-1
 312 -200 l 1,21,-1
 250 -200 l 1,22,-1
 188 -200 l 1,23,-1
 125 -200 l 1,0,-1
688 -138 m 1,24,-1
 688 -75 l 1,25,-1
 625 -75 l 1,26,-1
 625 -12 l 1,27,-1
 562 -12 l 1,28,-1
 562 50 l 1,29,-1
 562 112 l 1,30,-1
 562 175 l 1,31,-1
 562 238 l 1,32,-1
 625 238 l 1,33,-1
 625 300 l 1,34,-1
 688 300 l 1,35,-1
 750 300 l 1,36,-1
 750 238 l 1,37,-1
 750 175 l 1,38,-1
 750 112 l 1,39,-1
 750 50 l 1,40,-1
 750 -12 l 1,41,-1
 750 -75 l 1,42,-1
 750 -138 l 1,43,-1
 688 -138 l 1,24,-1
250 238 m 1,44,-1
 250 300 l 1,45,-1
 188 300 l 1,46,-1
 188 362 l 1,47,-1
 250 362 l 1,48,-1
 250 425 l 1,49,-1
 312 425 l 1,50,-1
 375 425 l 1,51,-1
 438 425 l 1,52,-1
 500 425 l 1,53,-1
 562 425 l 1,54,-1
 562 362 l 1,55,-1
 625 362 l 1,56,-1
 625 300 l 1,57,-1
 562 300 l 1,58,-1
 562 238 l 1,59,-1
 500 238 l 1,60,-1
 438 238 l 1,61,-1
 375 238 l 1,62,-1
 312 238 l 1,63,-1
 250 238 l 1,44,-1
62 362 m 1,64,-1
 62 425 l 1,65,-1
 62 488 l 1,66,-1
 62 550 l 1,67,-1
 62 612 l 1,68,-1
 62 675 l 1,69,-1
 62 738 l 1,70,-1
 125 738 l 1,71,-1
 125 675 l 1,72,-1
 188 675 l 1,73,-1
 188 612 l 1,74,-1
 250 612 l 1,75,-1
 250 550 l 1,76,-1
 250 488 l 1,77,-1
 250 425 l 1,78,-1
 188 425 l 1,79,-1
 188 362 l 1,80,-1
 125 362 l 1,81,-1
 62 362 l 1,64,-1
250 612 m 1,82,-1
 250 675 l 1,83,-1
 188 675 l 1,84,-1
 188 738 l 1,85,-1
 125 738 l 1,86,-1
 125 800 l 1,87,-1
 188 800 l 1,88,-1
 250 800 l 1,89,-1
 312 800 l 1,90,-1
 375 800 l 1,91,-1
 438 800 l 1,92,-1
 500 800 l 1,93,-1
 562 800 l 1,94,-1
 625 800 l 1,95,-1
 688 800 l 1,96,-1
 688 738 l 1,97,-1
 625 738 l 1,98,-1
 625 675 l 1,99,-1
 562 675 l 1,100,-1
 562 612 l 1,101,-1
 500 612 l 1,102,-1
 438 612 l 1,103,-1
 375 612 l 1,104,-1
 312 612 l 1,105,-1
 250 612 l 1,82,-1
EndSplineSet
EndChar

StartChar: char56
Encoding: 84 84 37
Width: 875
Flags: W
LayerCount: 2
Fore
SplineSet
125 -200 m 1,0,-1
 125 -138 l 1,1,-1
 188 -138 l 1,2,-1
 188 -75 l 1,3,-1
 250 -75 l 1,4,-1
 250 -12 l 1,5,-1
 312 -12 l 1,6,-1
 375 -12 l 1,7,-1
 438 -12 l 1,8,-1
 500 -12 l 1,9,-1
 562 -12 l 1,10,-1
 562 -75 l 1,11,-1
 625 -75 l 1,12,-1
 625 -138 l 1,13,-1
 688 -138 l 1,14,-1
 688 -200 l 1,15,-1
 625 -200 l 1,16,-1
 562 -200 l 1,17,-1
 500 -200 l 1,18,-1
 438 -200 l 1,19,-1
 375 -200 l 1,20,-1
 312 -200 l 1,21,-1
 250 -200 l 1,22,-1
 188 -200 l 1,23,-1
 125 -200 l 1,0,-1
62 -138 m 1,24,-1
 62 -75 l 1,25,-1
 62 -12 l 1,26,-1
 62 50 l 1,27,-1
 62 112 l 1,28,-1
 62 175 l 1,29,-1
 62 238 l 1,30,-1
 62 300 l 1,31,-1
 125 300 l 1,32,-1
 188 300 l 1,33,-1
 188 238 l 1,34,-1
 250 238 l 1,35,-1
 250 175 l 1,36,-1
 250 112 l 1,37,-1
 250 50 l 1,38,-1
 250 -12 l 1,39,-1
 188 -12 l 1,40,-1
 188 -75 l 1,41,-1
 125 -75 l 1,42,-1
 125 -138 l 1,43,-1
 62 -138 l 1,24,-1
250 238 m 1,44,-1
 250 300 l 1,45,-1
 188 300 l 1,46,-1
 188 362 l 1,47,-1
 250 362 l 1,48,-1
 250 425 l 1,49,-1
 312 425 l 1,50,-1
 375 425 l 1,51,-1
 438 425 l 1,52,-1
 500 425 l 1,53,-1
 562 425 l 1,54,-1
 562 362 l 1,55,-1
 625 362 l 1,56,-1
 625 300 l 1,57,-1
 562 300 l 1,58,-1
 562 238 l 1,59,-1
 500 238 l 1,60,-1
 438 238 l 1,61,-1
 375 238 l 1,62,-1
 312 238 l 1,63,-1
 250 238 l 1,44,-1
62 362 m 1,64,-1
 62 425 l 1,65,-1
 62 488 l 1,66,-1
 62 550 l 1,67,-1
 62 612 l 1,68,-1
 62 675 l 1,69,-1
 62 738 l 1,70,-1
 125 738 l 1,71,-1
 125 675 l 1,72,-1
 188 675 l 1,73,-1
 188 612 l 1,74,-1
 250 612 l 1,75,-1
 250 550 l 1,76,-1
 250 488 l 1,77,-1
 250 425 l 1,78,-1
 188 425 l 1,79,-1
 188 362 l 1,80,-1
 125 362 l 1,81,-1
 62 362 l 1,64,-1
EndSplineSet
EndChar

StartChar: char56
Encoding: 85 85 38
Width: 875
Flags: W
LayerCount: 2
Fore
SplineSet
125 -200 m 1,0,-1
 125 -138 l 1,1,-1
 188 -138 l 1,2,-1
 188 -75 l 1,3,-1
 250 -75 l 1,4,-1
 250 -12 l 1,5,-1
 312 -12 l 1,6,-1
 375 -12 l 1,7,-1
 438 -12 l 1,8,-1
 500 -12 l 1,9,-1
 562 -12 l 1,10,-1
 562 -75 l 1,11,-1
 625 -75 l 1,12,-1
 625 -138 l 1,13,-1
 688 -138 l 1,14,-1
 688 -200 l 1,15,-1
 625 -200 l 1,16,-1
 562 -200 l 1,17,-1
 500 -200 l 1,18,-1
 438 -200 l 1,19,-1
 375 -200 l 1,20,-1
 312 -200 l 1,21,-1
 250 -200 l 1,22,-1
 188 -200 l 1,23,-1
 125 -200 l 1,0,-1
62 -138 m 1,24,-1
 62 -75 l 1,25,-1
 62 -12 l 1,26,-1
 62 50 l 1,27,-1
 62 112 l 1,28,-1
 62 175 l 1,29,-1
 62 238 l 1,30,-1
 62 300 l 1,31,-1
 125 300 l 1,32,-1
 188 300 l 1,33,-1
 188 238 l 1,34,-1
 250 238 l 1,35,-1
 250 175 l 1,36,-1
 250 112 l 1,37,-1
 250 50 l 1,38,-1
 250 -12 l 1,39,-1
 188 -12 l 1,40,-1
 188 -75 l 1,41,-1
 125 -75 l 1,42,-1
 125 -138 l 1,43,-1
 62 -138 l 1,24,-1
688 -138 m 1,44,-1
 688 -75 l 1,45,-1
 625 -75 l 1,46,-1
 625 -12 l 1,47,-1
 562 -12 l 1,48,-1
 562 50 l 1,49,-1
 562 112 l 1,50,-1
 562 175 l 1,51,-1
 562 238 l 1,52,-1
 625 238 l 1,53,-1
 625 300 l 1,54,-1
 688 300 l 1,55,-1
 750 300 l 1,56,-1
 750 238 l 1,57,-1
 750 175 l 1,58,-1
 750 112 l 1,59,-1
 750 50 l 1,60,-1
 750 -12 l 1,61,-1
 750 -75 l 1,62,-1
 750 -138 l 1,63,-1
 688 -138 l 1,44,-1
62 362 m 1,64,-1
 62 425 l 1,65,-1
 62 488 l 1,66,-1
 62 550 l 1,67,-1
 62 612 l 1,68,-1
 62 675 l 1,69,-1
 62 738 l 1,70,-1
 125 738 l 1,71,-1
 125 675 l 1,72,-1
 188 675 l 1,73,-1
 188 612 l 1,74,-1
 250 612 l 1,75,-1
 250 550 l 1,76,-1
 250 488 l 1,77,-1
 250 425 l 1,78,-1
 188 425 l 1,79,-1
 188 362 l 1,80,-1
 125 362 l 1,81,-1
 62 362 l 1,64,-1
625 362 m 1,82,-1
 625 425 l 1,83,-1
 562 425 l 1,84,-1
 562 488 l 1,85,-1
 562 550 l 1,86,-1
 562 612 l 1,87,-1
 625 612 l 1,88,-1
 625 675 l 1,89,-1
 688 675 l 1,90,-1
 688 738 l 1,91,-1
 750 738 l 1,92,-1
 750 675 l 1,93,-1
 750 612 l 1,94,-1
 750 550 l 1,95,-1
 750 488 l 1,96,-1
 750 425 l 1,97,-1
 750 362 l 1,98,-1
 688 362 l 1,99,-1
 625 362 l 1,82,-1
EndSplineSet
EndChar

StartChar: char56
Encoding: 86 86 39
Width: 875
Flags: W
LayerCount: 2
Fore
SplineSet
62 -138 m 1,0,-1
 62 -75 l 1,1,-1
 62 -12 l 1,2,-1
 62 50 l 1,3,-1
 62 112 l 1,4,-1
 62 175 l 1,5,-1
 62 238 l 1,6,-1
 62 300 l 1,7,-1
 125 300 l 1,8,-1
 188 300 l 1,9,-1
 188 238 l 1,10,-1
 250 238 l 1,11,-1
 250 175 l 1,12,-1
 250 112 l 1,13,-1
 250 50 l 1,14,-1
 250 -12 l 1,15,-1
 188 -12 l 1,16,-1
 188 -75 l 1,17,-1
 125 -75 l 1,18,-1
 125 -138 l 1,19,-1
 62 -138 l 1,0,-1
312 -75 m 1,20,-1
 312 -12 l 1,21,-1
 312 50 l 1,22,-1
 312 112 l 1,23,-1
 312 175 l 1,24,-1
 375 175 l 1,25,-1
 375 238 l 1,26,-1
 438 238 l 1,27,-1
 438 300 l 1,28,-1
 500 300 l 1,29,-1
 500 362 l 1,30,-1
 562 362 l 1,31,-1
 625 362 l 1,32,-1
 625 300 l 1,33,-1
 688 300 l 1,34,-1
 688 238 l 1,35,-1
 625 238 l 1,36,-1
 625 175 l 1,37,-1
 562 175 l 1,38,-1
 562 112 l 1,39,-1
 500 112 l 1,40,-1
 500 50 l 1,41,-1
 438 50 l 1,42,-1
 438 -12 l 1,43,-1
 375 -12 l 1,44,-1
 375 -75 l 1,45,-1
 312 -75 l 1,20,-1
62 362 m 1,46,-1
 62 425 l 1,47,-1
 62 488 l 1,48,-1
 62 550 l 1,49,-1
 62 612 l 1,50,-1
 62 675 l 1,51,-1
 62 738 l 1,52,-1
 125 738 l 1,53,-1
 125 675 l 1,54,-1
 188 675 l 1,55,-1
 188 612 l 1,56,-1
 250 612 l 1,57,-1
 250 550 l 1,58,-1
 250 488 l 1,59,-1
 250 425 l 1,60,-1
 188 425 l 1,61,-1
 188 362 l 1,62,-1
 125 362 l 1,63,-1
 62 362 l 1,46,-1
625 362 m 1,64,-1
 625 425 l 1,65,-1
 562 425 l 1,66,-1
 562 488 l 1,67,-1
 562 550 l 1,68,-1
 562 612 l 1,69,-1
 625 612 l 1,70,-1
 625 675 l 1,71,-1
 688 675 l 1,72,-1
 688 738 l 1,73,-1
 750 738 l 1,74,-1
 750 675 l 1,75,-1
 750 612 l 1,76,-1
 750 550 l 1,77,-1
 750 488 l 1,78,-1
 750 425 l 1,79,-1
 750 362 l 1,80,-1
 688 362 l 1,81,-1
 625 362 l 1,64,-1
EndSplineSet
EndChar

StartChar: char56
Encoding: 87 87 40
Width: 875
Flags: W
LayerCount: 2
Fore
SplineSet
125 -200 m 1,0,-1
 125 -138 l 1,1,-1
 188 -138 l 1,2,-1
 188 -75 l 1,3,-1
 250 -75 l 1,4,-1
 250 -12 l 1,5,-1
 312 -12 l 1,6,-1
 375 -12 l 1,7,-1
 438 -12 l 1,8,-1
 500 -12 l 1,9,-1
 562 -12 l 1,10,-1
 562 -75 l 1,11,-1
 625 -75 l 1,12,-1
 625 -138 l 1,13,-1
 688 -138 l 1,14,-1
 688 -200 l 1,15,-1
 625 -200 l 1,16,-1
 562 -200 l 1,17,-1
 500 -200 l 1,18,-1
 438 -200 l 1,19,-1
 375 -200 l 1,20,-1
 312 -200 l 1,21,-1
 250 -200 l 1,22,-1
 188 -200 l 1,23,-1
 125 -200 l 1,0,-1
62 -138 m 1,24,-1
 62 -75 l 1,25,-1
 62 -12 l 1,26,-1
 62 50 l 1,27,-1
 62 112 l 1,28,-1
 62 175 l 1,29,-1
 62 238 l 1,30,-1
 62 300 l 1,31,-1
 125 300 l 1,32,-1
 188 300 l 1,33,-1
 188 238 l 1,34,-1
 250 238 l 1,35,-1
 250 175 l 1,36,-1
 250 112 l 1,37,-1
 250 50 l 1,38,-1
 250 -12 l 1,39,-1
 188 -12 l 1,40,-1
 188 -75 l 1,41,-1
 125 -75 l 1,42,-1
 125 -138 l 1,43,-1
 62 -138 l 1,24,-1
688 -138 m 1,44,-1
 688 -75 l 1,45,-1
 625 -75 l 1,46,-1
 625 -12 l 1,47,-1
 562 -12 l 1,48,-1
 562 50 l 1,49,-1
 562 112 l 1,50,-1
 562 175 l 1,51,-1
 562 238 l 1,52,-1
 625 238 l 1,53,-1
 625 300 l 1,54,-1
 688 300 l 1,55,-1
 750 300 l 1,56,-1
 750 238 l 1,57,-1
 750 175 l 1,58,-1
 750 112 l 1,59,-1
 750 50 l 1,60,-1
 750 -12 l 1,61,-1
 750 -75 l 1,62,-1
 750 -138 l 1,63,-1
 688 -138 l 1,44,-1
312 50 m 1,64,-1
 312 112 l 1,65,-1
 312 175 l 1,66,-1
 312 238 l 1,67,-1
 375 238 l 1,68,-1
 438 238 l 1,69,-1
 500 238 l 1,70,-1
 500 175 l 1,71,-1
 500 112 l 1,72,-1
 500 50 l 1,73,-1
 438 50 l 1,74,-1
 375 50 l 1,75,-1
 312 50 l 1,64,-1
62 362 m 1,76,-1
 62 425 l 1,77,-1
 62 488 l 1,78,-1
 62 550 l 1,79,-1
 62 612 l 1,80,-1
 62 675 l 1,81,-1
 62 738 l 1,82,-1
 125 738 l 1,83,-1
 125 675 l 1,84,-1
 188 675 l 1,85,-1
 188 612 l 1,86,-1
 250 612 l 1,87,-1
 250 550 l 1,88,-1
 250 488 l 1,89,-1
 250 425 l 1,90,-1
 188 425 l 1,91,-1
 188 362 l 1,92,-1
 125 362 l 1,93,-1
 62 362 l 1,76,-1
625 362 m 1,94,-1
 625 425 l 1,95,-1
 562 425 l 1,96,-1
 562 488 l 1,97,-1
 562 550 l 1,98,-1
 562 612 l 1,99,-1
 625 612 l 1,100,-1
 625 675 l 1,101,-1
 688 675 l 1,102,-1
 688 738 l 1,103,-1
 750 738 l 1,104,-1
 750 675 l 1,105,-1
 750 612 l 1,106,-1
 750 550 l 1,107,-1
 750 488 l 1,108,-1
 750 425 l 1,109,-1
 750 362 l 1,110,-1
 688 362 l 1,111,-1
 625 362 l 1,94,-1
312 425 m 1,112,-1
 312 488 l 1,113,-1
 312 550 l 1,114,-1
 375 550 l 1,115,-1
 438 550 l 1,116,-1
 500 550 l 1,117,-1
 500 488 l 1,118,-1
 500 425 l 1,119,-1
 438 425 l 1,120,-1
 375 425 l 1,121,-1
 312 425 l 1,112,-1
EndSplineSet
EndChar

StartChar: char56
Encoding: 88 88 41
Width: 875
Flags: W
LayerCount: 2
Fore
SplineSet
62 -138 m 1,0,-1
 62 -75 l 1,1,-1
 62 -12 l 1,2,-1
 62 50 l 1,3,-1
 62 112 l 1,4,-1
 125 112 l 1,5,-1
 125 175 l 1,6,-1
 188 175 l 1,7,-1
 188 238 l 1,8,-1
 250 238 l 1,9,-1
 250 300 l 1,10,-1
 312 300 l 1,11,-1
 375 300 l 1,12,-1
 375 238 l 1,13,-1
 375 175 l 1,14,-1
 375 112 l 1,15,-1
 312 112 l 1,16,-1
 312 50 l 1,17,-1
 250 50 l 1,18,-1
 250 -12 l 1,19,-1
 188 -12 l 1,20,-1
 188 -75 l 1,21,-1
 125 -75 l 1,22,-1
 125 -138 l 1,23,-1
 62 -138 l 1,0,-1
688 -138 m 1,24,-1
 688 -75 l 1,25,-1
 625 -75 l 1,26,-1
 625 -12 l 1,27,-1
 562 -12 l 1,28,-1
 562 50 l 1,29,-1
 500 50 l 1,30,-1
 500 112 l 1,31,-1
 438 112 l 1,32,-1
 438 175 l 1,33,-1
 438 238 l 1,34,-1
 438 300 l 1,35,-1
 500 300 l 1,36,-1
 562 300 l 1,37,-1
 562 238 l 1,38,-1
 625 238 l 1,39,-1
 625 175 l 1,40,-1
 688 175 l 1,41,-1
 688 112 l 1,42,-1
 750 112 l 1,43,-1
 750 50 l 1,44,-1
 750 -12 l 1,45,-1
 750 -75 l 1,46,-1
 750 -138 l 1,47,-1
 688 -138 l 1,24,-1
188 362 m 1,48,-1
 188 425 l 1,49,-1
 125 425 l 1,50,-1
 125 488 l 1,51,-1
 62 488 l 1,52,-1
 62 550 l 1,53,-1
 62 612 l 1,54,-1
 62 675 l 1,55,-1
 62 738 l 1,56,-1
 125 738 l 1,57,-1
 125 675 l 1,58,-1
 188 675 l 1,59,-1
 188 612 l 1,60,-1
 250 612 l 1,61,-1
 250 550 l 1,62,-1
 312 550 l 1,63,-1
 312 488 l 1,64,-1
 375 488 l 1,65,-1
 375 425 l 1,66,-1
 375 362 l 1,67,-1
 312 362 l 1,68,-1
 250 362 l 1,69,-1
 188 362 l 1,48,-1
438 362 m 1,70,-1
 438 425 l 1,71,-1
 438 488 l 1,72,-1
 500 488 l 1,73,-1
 500 550 l 1,74,-1
 562 550 l 1,75,-1
 562 612 l 1,76,-1
 625 612 l 1,77,-1
 625 675 l 1,78,-1
 688 675 l 1,79,-1
 688 738 l 1,80,-1
 750 738 l 1,81,-1
 750 675 l 1,82,-1
 750 612 l 1,83,-1
 750 550 l 1,84,-1
 750 488 l 1,85,-1
 688 488 l 1,86,-1
 688 425 l 1,87,-1
 625 425 l 1,88,-1
 625 362 l 1,89,-1
 562 362 l 1,90,-1
 500 362 l 1,91,-1
 438 362 l 1,70,-1
EndSplineSet
EndChar

StartChar: char56
Encoding: 89 89 42
Width: 875
Flags: W
LayerCount: 2
Fore
SplineSet
125 -200 m 1,0,-1
 125 -138 l 1,1,-1
 188 -138 l 1,2,-1
 188 -75 l 1,3,-1
 250 -75 l 1,4,-1
 250 -12 l 1,5,-1
 312 -12 l 1,6,-1
 375 -12 l 1,7,-1
 438 -12 l 1,8,-1
 500 -12 l 1,9,-1
 562 -12 l 1,10,-1
 562 -75 l 1,11,-1
 625 -75 l 1,12,-1
 625 -138 l 1,13,-1
 688 -138 l 1,14,-1
 688 -200 l 1,15,-1
 625 -200 l 1,16,-1
 562 -200 l 1,17,-1
 500 -200 l 1,18,-1
 438 -200 l 1,19,-1
 375 -200 l 1,20,-1
 312 -200 l 1,21,-1
 250 -200 l 1,22,-1
 188 -200 l 1,23,-1
 125 -200 l 1,0,-1
688 -138 m 1,24,-1
 688 -75 l 1,25,-1
 625 -75 l 1,26,-1
 625 -12 l 1,27,-1
 562 -12 l 1,28,-1
 562 50 l 1,29,-1
 562 112 l 1,30,-1
 562 175 l 1,31,-1
 562 238 l 1,32,-1
 625 238 l 1,33,-1
 625 300 l 1,34,-1
 688 300 l 1,35,-1
 750 300 l 1,36,-1
 750 238 l 1,37,-1
 750 175 l 1,38,-1
 750 112 l 1,39,-1
 750 50 l 1,40,-1
 750 -12 l 1,41,-1
 750 -75 l 1,42,-1
 750 -138 l 1,43,-1
 688 -138 l 1,24,-1
250 238 m 1,44,-1
 250 300 l 1,45,-1
 188 300 l 1,46,-1
 188 362 l 1,47,-1
 250 362 l 1,48,-1
 250 425 l 1,49,-1
 312 425 l 1,50,-1
 375 425 l 1,51,-1
 438 425 l 1,52,-1
 500 425 l 1,53,-1
 562 425 l 1,54,-1
 562 362 l 1,55,-1
 625 362 l 1,56,-1
 625 300 l 1,57,-1
 562 300 l 1,58,-1
 562 238 l 1,59,-1
 500 238 l 1,60,-1
 438 238 l 1,61,-1
 375 238 l 1,62,-1
 312 238 l 1,63,-1
 250 238 l 1,44,-1
62 362 m 1,64,-1
 62 425 l 1,65,-1
 62 488 l 1,66,-1
 62 550 l 1,67,-1
 62 612 l 1,68,-1
 62 675 l 1,69,-1
 62 738 l 1,70,-1
 125 738 l 1,71,-1
 125 675 l 1,72,-1
 188 675 l 1,73,-1
 188 612 l 1,74,-1
 250 612 l 1,75,-1
 250 550 l 1,76,-1
 250 488 l 1,77,-1
 250 425 l 1,78,-1
 188 425 l 1,79,-1
 188 362 l 1,80,-1
 125 362 l 1,81,-1
 62 362 l 1,64,-1
625 362 m 1,82,-1
 625 425 l 1,83,-1
 562 425 l 1,84,-1
 562 488 l 1,85,-1
 562 550 l 1,86,-1
 562 612 l 1,87,-1
 625 612 l 1,88,-1
 625 675 l 1,89,-1
 688 675 l 1,90,-1
 688 738 l 1,91,-1
 750 738 l 1,92,-1
 750 675 l 1,93,-1
 750 612 l 1,94,-1
 750 550 l 1,95,-1
 750 488 l 1,96,-1
 750 425 l 1,97,-1
 750 362 l 1,98,-1
 688 362 l 1,99,-1
 625 362 l 1,82,-1
EndSplineSet
EndChar

StartChar: char56
Encoding: 90 90 43
Width: 875
Flags: W
LayerCount: 2
Fore
SplineSet
125 -200 m 1,0,-1
 125 -138 l 1,1,-1
 188 -138 l 1,2,-1
 188 -75 l 1,3,-1
 250 -75 l 1,4,-1
 250 -12 l 1,5,-1
 312 -12 l 1,6,-1
 375 -12 l 1,7,-1
 438 -12 l 1,8,-1
 500 -12 l 1,9,-1
 562 -12 l 1,10,-1
 562 -75 l 1,11,-1
 625 -75 l 1,12,-1
 625 -138 l 1,13,-1
 688 -138 l 1,14,-1
 688 -200 l 1,15,-1
 625 -200 l 1,16,-1
 562 -200 l 1,17,-1
 500 -200 l 1,18,-1
 438 -200 l 1,19,-1
 375 -200 l 1,20,-1
 312 -200 l 1,21,-1
 250 -200 l 1,22,-1
 188 -200 l 1,23,-1
 125 -200 l 1,0,-1
62 -138 m 1,24,-1
 62 -75 l 1,25,-1
 62 -12 l 1,26,-1
 62 50 l 1,27,-1
 62 112 l 1,28,-1
 125 112 l 1,29,-1
 125 175 l 1,30,-1
 188 175 l 1,31,-1
 188 238 l 1,32,-1
 250 238 l 1,33,-1
 250 300 l 1,34,-1
 312 300 l 1,35,-1
 312 362 l 1,36,-1
 375 362 l 1,37,-1
 375 300 l 1,38,-1
 375 238 l 1,39,-1
 375 175 l 1,40,-1
 375 112 l 1,41,-1
 312 112 l 1,42,-1
 312 50 l 1,43,-1
 250 50 l 1,44,-1
 250 -12 l 1,45,-1
 188 -12 l 1,46,-1
 188 -75 l 1,47,-1
 125 -75 l 1,48,-1
 125 -138 l 1,49,-1
 62 -138 l 1,24,-1
438 238 m 1,50,-1
 438 300 l 1,51,-1
 438 362 l 1,52,-1
 438 425 l 1,53,-1
 438 488 l 1,54,-1
 500 488 l 1,55,-1
 500 550 l 1,56,-1
 562 550 l 1,57,-1
 562 612 l 1,58,-1
 625 612 l 1,59,-1
 625 675 l 1,60,-1
 688 675 l 1,61,-1
 688 738 l 1,62,-1
 750 738 l 1,63,-1
 750 675 l 1,64,-1
 750 612 l 1,65,-1
 750 550 l 1,66,-1
 750 488 l 1,67,-1
 688 488 l 1,68,-1
 688 425 l 1,69,-1
 625 425 l 1,70,-1
 625 362 l 1,71,-1
 562 362 l 1,72,-1
 562 300 l 1,73,-1
 500 300 l 1,74,-1
 500 238 l 1,75,-1
 438 238 l 1,50,-1
250 612 m 1,76,-1
 250 675 l 1,77,-1
 188 675 l 1,78,-1
 188 738 l 1,79,-1
 125 738 l 1,80,-1
 125 800 l 1,81,-1
 188 800 l 1,82,-1
 250 800 l 1,83,-1
 312 800 l 1,84,-1
 375 800 l 1,85,-1
 438 800 l 1,86,-1
 500 800 l 1,87,-1
 562 800 l 1,88,-1
 625 800 l 1,89,-1
 688 800 l 1,90,-1
 688 738 l 1,91,-1
 625 738 l 1,92,-1
 625 675 l 1,93,-1
 562 675 l 1,94,-1
 562 612 l 1,95,-1
 500 612 l 1,96,-1
 438 612 l 1,97,-1
 375 612 l 1,98,-1
 312 612 l 1,99,-1
 250 612 l 1,76,-1
EndSplineSet
EndChar

StartChar: space
Encoding: 32 32 44
Width: 875
VWidth: 0
LayerCount: 2
Fore
SplineSet
339.5 450 m 28,0,-1
EndSplineSet
EndChar
